<?xml version="1.0" encoding="UTF-8"?>
<svg version="1.1" xmlns="http://www.w3.org/2000/svg" width="2000" height="2000">
<path d="M0 0 C660 0 1320 0 2000 0 C2000 660 2000 1320 2000 2000 C1340 2000 680 2000 0 2000 C0 1340 0 680 0 0 Z " fill="#E7E7E7" transform="translate(0,0)"/>
<path d="M0 0 C3.8339058 1.2779686 4.10636815 2.47450668 6.00390625 5.96875 C6.57423584 7.00572021 7.14456543 8.04269043 7.73217773 9.11108398 C8.33618408 10.22942627 8.94019043 11.34776855 9.5625 12.5 C10.83454357 14.81456871 12.10798382 17.12837037 13.3828125 19.44140625 C14.00446289 20.57336426 14.62611328 21.70532227 15.26660156 22.87158203 C17.4250432 26.76711317 19.6586966 30.61149881 21.9375 34.4375 C26.07428718 41.40703097 30.14122082 48.41502773 34.1875 55.4375 C34.82550537 56.54472412 35.46351074 57.65194824 36.12084961 58.79272461 C37.42889477 61.06337068 38.73675448 63.33412358 40.04443359 65.60498047 C43.19332054 71.0716998 46.34683264 76.53574887 49.5 82 C50.7500235 84.16665311 52.00002347 86.33331979 53.25 88.5 C53.86875 89.5725 54.4875 90.645 55.125 91.75 C60.75 101.5 60.75 101.5 62.62719727 104.75390625 C63.86976019 106.9076172 65.11243489 109.06126367 66.35522461 111.21484375 C69.25314623 116.23684262 72.15003349 121.25942807 75.04275513 126.28442383 C76.05947198 128.05045522 77.07655658 129.81627431 78.09375 131.58203125 C79.36400873 133.78734155 80.63359018 135.99304216 81.90234375 138.19921875 C85.16638294 143.86414009 88.48428892 149.48323534 91.93139648 155.0390625 C93 157 93 157 93 159 C93.969375 158.50371094 94.93875 158.00742187 95.9375 157.49609375 C144.96178189 132.569959 196.42371909 124.11993152 249.64550781 141.34179688 C275.49961262 150.16009335 297.64556539 164.765367 317.75 183.0625 C318.26925049 183.53300781 318.78850098 184.00351562 319.32348633 184.48828125 C352.77407586 215.45573212 375.23440557 264.48504881 377.12255859 309.95117188 C378.24607448 355.19141153 367.47011539 399.91906168 339 436 C338.23945312 436.969375 337.47890625 437.93875 336.6953125 438.9375 C329.44208026 447.97266818 321.97418026 456.64146594 313 464 C312.50322754 464.41975098 312.00645508 464.83950195 311.49462891 465.27197266 C285.71793451 487.03643562 255.35955348 502.12859977 222 508 C221.08871338 508.1762793 220.17742676 508.35255859 219.23852539 508.53417969 C209.20873871 510.31296121 199.27830153 510.39784623 189.125 510.375 C188.21714752 510.37445618 187.30929504 510.37391235 186.37393188 510.37335205 C172.23961265 510.33443812 158.73957275 509.57103016 145 506 C143.74582275 505.68651611 143.74582275 505.68651611 142.46630859 505.36669922 C117.29720247 498.92853929 93.16813174 487.44779676 73 471 C72.48808105 470.58814453 71.97616211 470.17628906 71.44873047 469.75195312 C46.40378014 449.53357137 26.18690857 423.95948358 14 394 C14 393.34 14 392.68 14 392 C-64.54 392 -143.08 392 -224 392 C-225 388 -225 388 -224.06640625 385.75537109 C-223.57011719 384.93633301 -223.07382812 384.11729492 -222.5625 383.2734375 C-222.00506104 382.33773926 -221.44762207 381.40204102 -220.87329102 380.43798828 C-220.25510498 379.42720215 -219.63691895 378.41641602 -219 377.375 C-217.69574203 375.19322971 -216.39238645 373.01091976 -215.08984375 370.828125 C-214.41163574 369.69955078 -213.73342773 368.57097656 -213.03466797 367.40820312 C-209.81553259 362.01593892 -206.68995757 356.57077641 -203.5625 351.125 C-202.30364292 348.93995579 -201.04452683 346.75506079 -199.78515625 344.5703125 C-198.84760498 342.94270996 -198.84760498 342.94270996 -197.89111328 341.28222656 C-194.76319852 335.85340058 -191.63141552 330.42680719 -188.5 325 C-187.24998121 322.83334417 -185.99998122 320.6666775 -184.75 318.5 C-137.25 236.16666667 -89.75 153.83333333 -42.25 71.5 C-41.63116943 70.42733887 -41.01233887 69.35467773 -40.37475586 68.24951172 C-39.12564482 66.08442929 -37.87645871 63.91939018 -36.62719727 61.75439453 C-33.48797691 56.31384294 -30.35009437 50.87252784 -27.21484375 45.4296875 C-23.48177165 38.95011 -19.74224737 32.47428184 -16 26 C-15.01676758 24.2969873 -15.01676758 24.2969873 -14.01367188 22.55957031 C-12.07503614 19.20438501 -10.13192608 15.85183222 -8.1875 12.5 C-7.29792603 10.95868408 -7.29792603 10.95868408 -6.39038086 9.38623047 C-5.84260986 8.44408691 -5.29483887 7.50194336 -4.73046875 6.53125 C-4.24989014 5.70173828 -3.76931152 4.87222656 -3.27416992 4.01757812 C-2 2 -2 2 0 0 Z " fill="#F44803" transform="translate(909,723)"/>
<path d="M0 0 C0.82394257 0.00176239 1.64788513 0.00352478 2.49679565 0.00534058 C16.95781922 0.0738845 30.53482404 1.56072185 44.5 5.5 C45.40411621 5.74637207 46.30823242 5.99274414 47.23974609 6.24658203 C87.9864576 17.63568809 122.18371635 46.00600137 143.27978516 82.32275391 C150.43090804 95.08260063 155.83615384 108.34461595 159.5 122.5 C159.71027832 123.29583496 159.92055664 124.09166992 160.13720703 124.91162109 C163.29072379 137.40833637 163.86591107 149.74239091 163.875 162.5625 C163.87799103 163.67902954 163.87799103 163.67902954 163.88104248 164.81811523 C163.87819497 174.19626712 163.26267292 183.26446236 161.5 192.5 C161.28923828 193.63562378 161.28923828 193.63562378 161.07421875 194.79418945 C153.72432917 232.169639 132.79983263 267.2673071 102.5 290.5 C101.11554688 291.60794922 101.11554688 291.60794922 99.703125 292.73828125 C66.92542672 318.38461544 23.13904963 329.59003484 -18.01220703 324.62866211 C-61.075206 318.80558352 -101.09259925 297.54592549 -127.9375 262.875 C-132.53842492 256.6538158 -136.60885624 250.18655524 -140.5 243.5 C-141.02980469 242.59378906 -141.55960938 241.68757813 -142.10546875 240.75390625 C-145.5 234.81109944 -145.5 234.81109944 -145.5 232.5 C-84.78 232.5 -24.06 232.5 38.5 232.5 C35.95087099 226.12717749 33.6977197 220.70621431 30.1875 215 C29.29814439 213.5203327 28.41021863 212.0398054 27.5234375 210.55859375 C27.04100586 209.75534668 26.55857422 208.95209961 26.06152344 208.12451172 C23.09254995 203.13444526 20.20789123 198.09549113 17.3125 193.0625 C16.0169639 190.81378087 14.72139052 188.56508322 13.42578125 186.31640625 C12.4505249 184.62281982 12.4505249 184.62281982 11.45556641 182.89501953 C8.30667946 177.4283002 5.15316736 171.96425113 2 166.5 C0.7499765 164.33334689 -0.50002347 162.16668021 -1.75 160 C-2.36875 158.9275 -2.9875 157.855 -3.625 156.75 C-20.5 127.5 -37.375 98.25 -54.25 69 C-54.8699585 67.92556641 -55.48991699 66.85113281 -56.12866211 65.74414062 C-57.36701979 63.59733086 -58.6048213 61.45020016 -59.84204102 59.30273438 C-62.78347196 54.19881776 -65.73073772 49.09851866 -68.69747925 44.00927734 C-70.10697037 41.59061686 -71.51332765 39.17014138 -72.91943359 36.74951172 C-73.91978682 35.03043948 -74.92469734 33.3140218 -75.9296875 31.59765625 C-76.52910156 30.56511719 -77.12851562 29.53257812 -77.74609375 28.46875 C-78.54551392 27.09879883 -78.54551392 27.09879883 -79.36108398 25.70117188 C-80.5 23.5 -80.5 23.5 -80.5 21.5 C-54.75984069 8.17329466 -29.21105207 -0.16860155 0 0 Z " fill="#E8E7E7" transform="translate(1096.5,882.5)"/>
<path d="M0 0 C0.66 0 1.32 0 2 0 C2.35078613 0.63164063 2.70157227 1.26328125 3.06298828 1.9140625 C10.70985139 15.66702135 18.48090039 29.33369051 26.4375 42.91015625 C30.1321331 49.21570419 33.78852681 55.54294436 37.4375 61.875 C38.06003662 62.95515381 38.68257324 64.03530762 39.32397461 65.14819336 C40.58576826 67.33796334 41.84740534 69.52782355 43.10888672 71.71777344 C46.23680146 77.14659938 49.36853731 82.57322007 52.5 88 C56.26363919 94.52233275 60.02644622 101.04513762 63.78515625 107.5703125 C69.83055159 118.06232094 75.89110219 128.54481676 82 139 C88.74701194 150.54729516 95.43339318 162.12902027 102.10888672 173.71777344 C105.23680148 179.14659942 108.36858448 184.57319281 111.5 190 C112.75001879 192.16665583 114.00001878 194.3333225 115.25 196.5 C115.86875 197.5725 116.4875 198.645 117.125 199.75 C122.75 209.5 122.75 209.5 124.62524414 212.75048828 C125.87435518 214.91557071 127.12354129 217.08060982 128.37280273 219.24560547 C131.51202309 224.68615706 134.64990563 230.12747216 137.78515625 235.5703125 C143.83055355 246.06232434 149.89157029 256.54454099 156 267 C158.33456053 270.99928512 160.66778583 274.99934614 163 279 C163.33056396 279.56684509 163.66112793 280.13369019 164.00170898 280.7177124 C166.08614461 284.29297904 168.16654728 287.87054738 170.2421875 291.45092773 C171.22687525 293.1476535 172.21495999 294.84240639 173.203125 296.53710938 C173.80125 297.57029297 174.399375 298.60347656 175.015625 299.66796875 C175.54446289 300.57828857 176.07330078 301.4886084 176.61816406 302.42651367 C178 305 178 305 180 310 C61.86 310 -56.28 310 -178 310 C-176.76540872 306.9135218 -175.68785459 304.26074518 -174.109375 301.41796875 C-173.73723877 300.74636719 -173.36510254 300.07476563 -172.98168945 299.3828125 C-172.57523193 298.65835937 -172.16877441 297.93390625 -171.75 297.1875 C-171.31453857 296.40761719 -170.87907715 295.62773438 -170.43041992 294.82421875 C-165.62754585 286.26646158 -160.66206012 277.80382282 -155.703125 269.3359375 C-151.96365411 262.94718008 -148.25874966 256.53883924 -144.5625 250.125 C-143.94028564 249.04541016 -143.31807129 247.96582031 -142.67700195 246.85351562 C-141.41488483 244.6631748 -140.15292215 242.47274498 -138.89111328 240.28222656 C-135.13971976 233.77128743 -131.38309006 227.26336806 -127.62744141 220.75488281 C-124.48817754 215.31414664 -121.35018503 209.87268523 -118.21484375 204.4296875 C-111.59777108 192.9455118 -104.95366023 181.47803106 -98.26708984 170.03417969 C-92.10080946 159.47379718 -85.9950405 148.87873234 -79.89111328 138.28222656 C-76.76319852 132.85340058 -73.63141552 127.42680719 -70.5 122 C-69.24998121 119.83334417 -67.99998122 117.6666775 -66.75 115.5 C-63 109 -63 109 -59.25 102.5 C-58.63116943 101.42733887 -58.01233887 100.35467773 -57.37475586 99.24951172 C-56.12564482 97.08442929 -54.87645871 94.91939018 -53.62719727 92.75439453 C-50.48797691 87.31384294 -47.35009437 81.87252784 -44.21484375 76.4296875 C-37.60580056 64.95944725 -30.97036795 53.50551464 -24.29125977 42.07592773 C-19.79528237 34.37682954 -15.32881953 26.6610321 -10.875 18.9375 C-10.24722656 17.84888672 -9.61945313 16.76027344 -8.97265625 15.63867188 C-5.97185672 10.4314021 -2.97702404 5.22090037 0 0 Z " fill="#E8E7E7" transform="translate(908,776)"/>
<path d="M0 0 C3.75636093 0.59077541 6.6017136 1.65975166 9.9296875 3.484375 C11.3530542 4.25914185 11.3530542 4.25914185 12.80517578 5.04956055 C13.81821777 5.61070557 14.83125977 6.17185059 15.875 6.75 C16.93058105 7.32983643 17.98616211 7.90967285 19.07373047 8.50708008 C21.28354378 9.72397163 23.49136021 10.94449576 25.69726562 12.16845703 C28.86067741 13.92273817 32.03148057 15.66300584 35.203125 17.40234375 C78.20889967 41.15290132 78.20889967 41.15290132 85 62 C86.42177662 73.85312716 83.78095207 84.25979318 76.6875 93.875 C69.65228293 102.15619504 61.99062163 108.32021067 51 110 C48.5853802 110.11745323 46.16744274 110.17506459 43.75 110.1875 C42.50734375 110.20167969 41.2646875 110.21585937 39.984375 110.23046875 C36.855212 110.04946814 34.26941701 109.68542594 31.25097656 108.9855957 C30.05193695 108.71027763 30.05193695 108.71027763 28.82867432 108.42939758 C28.22521179 108.28769638 27.62174927 108.14599518 27 108 C27.53274918 114.27240433 28.0658074 120.54478231 28.59912109 126.81713867 C28.77953933 128.93952773 28.95988103 131.0619233 29.14013672 133.18432617 C29.22666504 134.20308838 29.31319336 135.22185059 29.40234375 136.27148438 C29.48905334 137.29414398 29.57576294 138.31680359 29.6651001 139.37045288 C29.84177579 141.44191934 30.0202893 143.51322985 30.20062256 145.5843811 C30.66335042 150.91596262 31.09538719 156.2471585 31.47363281 161.58544922 C31.55300079 162.64122665 31.63236877 163.69700409 31.71414185 164.78477478 C31.8649316 166.79794238 32.00514474 168.81193842 32.13327026 170.82667542 C32.20288971 171.72619431 32.27250916 172.6257132 32.34423828 173.55249023 C32.39879181 174.34163315 32.45334534 175.13077606 32.509552 175.9438324 C33.55981077 180.346966 38.15372444 182.81863428 41.625 185.375 C42.60726563 186.12523437 43.58953125 186.87546875 44.6015625 187.6484375 C48.83056104 189.33031508 50.4162939 188.7759927 54.51367188 187.13085938 C55.33416016 186.75767578 56.15464844 186.38449219 57 186 C57.87205078 185.60619141 58.74410156 185.21238281 59.64257812 184.80664062 C62.59361526 183.42921461 65.51614669 182.0017659 68.4375 180.5625 C70.67107483 179.47621777 72.90547558 178.39163238 75.140625 177.30859375 C76.27951172 176.75671387 77.41839844 176.20483398 78.59179688 175.63623047 C83.92998272 173.07344239 89.30604804 170.59534429 94.6875 168.125 C104.05524395 163.82040466 113.40957909 159.48848342 122.75 155.125 C123.99983613 154.54133878 125.24967337 153.95767993 126.49951172 153.37402344 C131.70226191 150.94399539 136.9042905 148.51242486 142.10595703 146.08007812 C145.51984408 144.48371753 148.93408444 142.88811455 152.34851074 141.29290771 C154.25511019 140.40182222 156.16125544 139.50977054 158.06738281 138.61767578 C163.11301594 136.26022147 168.16031637 133.90590182 173.23046875 131.6015625 C173.91906982 131.28783691 174.6076709 130.97411133 175.31713867 130.65087891 C177 130 177 130 179 130 C179.99 126.7 180.98 123.4 182 120 C188.18160604 120.53753096 193.326858 122.54582388 199 125 C198.35549198 130.46893747 196.55511528 135.19796224 194.5625 140.28515625 C194.21077728 141.19706726 193.85905457 142.10897827 193.49667358 143.04852295 C192.73516402 145.02122419 191.97110292 146.99294196 191.20477295 148.96377563 C189.56191078 153.18928305 187.93151116 157.41956141 186.30062866 161.64970398 C185.45455569 163.84419487 184.60788936 166.03845708 183.76065063 168.23249817 C179.57752012 179.07201046 175.47028966 189.93956405 171.375 200.8125 C169.98365854 204.5028252 168.59159578 208.19287791 167.19921875 211.8828125 C166.68525291 213.24495377 166.68525291 213.24495377 166.16090393 214.63461304 C162.5361931 224.2363688 158.89205941 233.83071456 155.24029541 243.42221069 C154.5485452 245.2391729 153.85708924 247.05624716 153.16595459 248.8734436 C152.51667859 250.58031823 151.86693554 252.28701529 151.2166748 253.99351501 C150.61209092 255.58036793 150.00861287 257.16764271 149.40637207 258.75538635 C147.56707036 263.58587469 145.63312611 268.3625702 143.5246582 273.08325195 C142.87617577 275.45237042 143.14355285 276.71574867 144 279 C146.02798291 281.58757155 148.19287465 284.01347734 150.3828125 286.46484375 C152.40643544 289.63714155 151.7138487 290.47010249 151 294 C152.61449186 296.34045058 152.61449186 296.34045058 154.9375 298.3125 C155.68902344 299.00988281 156.44054688 299.70726562 157.21484375 300.42578125 C157.80394531 300.94527344 158.39304687 301.46476562 159 302 C165.02566476 298.09886971 170.75460476 293.96160349 176.375 289.5 C182.66940308 284.55100579 189.03350055 279.72178227 195.5 275 C201.74901326 270.43346245 207.91066514 265.77738603 214 261 C220.78951321 255.67538558 227.67735668 250.50862068 234.64624023 245.42138672 C239.06929822 242.18464712 243.45143077 238.90293426 247.796875 235.5625 C249.23873169 234.45430908 249.23873169 234.45430908 250.7097168 233.32373047 C252.58419646 231.87900956 254.4555582 230.43023247 256.32348633 228.97705078 C257.1667749 228.32720215 258.01006348 227.67735352 258.87890625 227.0078125 C259.6272876 226.42660645 260.37566895 225.84540039 261.14672852 225.24658203 C263 224 263 224 265 224 C264.24203125 222.64455078 264.24203125 222.64455078 263.46875 221.26171875 C262.8121697 220.07049449 262.15593782 218.87907815 261.5 217.6875 C261.16613281 217.09259766 260.83226562 216.49769531 260.48828125 215.88476562 C258.93174886 213.04171156 258 211.29339012 258 208 C260.3125 205.75 260.3125 205.75 263 204 C266.37779045 205.12593015 266.85269787 205.79015388 268.86328125 208.5859375 C269.4142749 209.34326172 269.96526855 210.10058594 270.53295898 210.88085938 C271.12020752 211.70392578 271.70745605 212.52699219 272.3125 213.375 C273.55928444 215.10200405 274.80669978 216.82855278 276.0546875 218.5546875 C276.69889648 219.44897461 277.34310547 220.34326172 278.00683594 221.26464844 C279.99681218 223.99562514 282.02546229 226.6927378 284.0703125 229.3828125 C285.04230591 230.66986084 285.04230591 230.66986084 286.03393555 231.98291016 C287.28848294 233.64180251 288.55021876 235.29528654 289.81958008 236.94287109 C290.38314209 237.69391113 290.9467041 238.44495117 291.52734375 239.21875 C292.02999756 239.87810547 292.53265137 240.53746094 293.05053711 241.21679688 C293.36385986 241.80525391 293.67718262 242.39371094 294 243 C292.86695008 246.39914975 291.87481525 247.05254451 289 249 C284.9387984 247.24932885 282.72609793 244.65968183 279.87890625 241.36328125 C278.05837365 239.75179192 278.05837365 239.75179192 275.56640625 240.0625 C272.54298381 241.16694655 270.79141478 242.55837884 268.375 244.6875 C263.438876 248.87132703 258.35378402 252.75151882 253.125 256.5625 C246.18845844 261.6304476 239.31992252 266.7761625 232.5 272 C225.82166792 277.11360655 219.10135851 282.15909515 212.3125 287.125 C205.98389209 291.75692665 199.74159617 296.48286162 193.5625 301.3125 C192.8197583 301.89290039 192.0770166 302.47330078 191.31176758 303.07128906 C190.59142334 303.63428711 189.8710791 304.19728516 189.12890625 304.77734375 C185.4348769 307.66397238 181.73225787 310.537931 178 313.375 C177.071875 314.08398438 176.14375 314.79296875 175.1875 315.5234375 C173 317 173 317 171 317 C173.31 321.95 175.62 326.9 178 332 C175.69 333.65 173.38 335.3 171 337 C164.69443901 329.57678666 158.87100122 321.86009305 153.13818359 313.9909668 C149.62887976 309.17933915 146.03216342 304.46784147 142.28955078 299.83447266 C141 298 141 298 141 296 C141.66 295.34 142.32 294.68 143 294 C137.09033592 288.00169095 131.21835601 282.0429489 124.80078125 276.58203125 C122.30287623 274.38755937 120.00426882 272.01584158 117.67578125 269.64453125 C115.244864 267.25894579 112.65231288 265.13478841 110 263 C110.39999717 260.68001641 110.90567879 259.13676576 112.25 257.1875 C114 256 114 256 116.1875 256 C118.84514066 256.9449389 120.80998998 258.05457993 123.17578125 259.5625 C123.89290283 260.01753906 124.61002441 260.47257812 125.34887695 260.94140625 C125.89374756 261.29074219 126.43861816 261.64007812 127 262 C129.02619947 256.8092184 131.03790796 251.61314217 133.03637695 246.41162109 C133.7182887 244.64283646 134.4041393 242.87556513 135.09399414 241.10986328 C136.08477995 238.57191085 137.06128364 236.02885736 138.03515625 233.484375 C138.34655045 232.69569031 138.65794464 231.90700562 138.97877502 231.09442139 C139.39932411 229.98372284 139.39932411 229.98372284 139.82836914 228.85058594 C140.07929825 228.20216736 140.33022736 227.55374878 140.58876038 226.88568115 C141.08943784 224.58989545 140.77344466 223.20119339 140 221 C138.76231161 219.42572727 138.76231161 219.42572727 137.1484375 218.0390625 C136.55200439 217.4922583 135.95557129 216.9454541 135.34106445 216.38208008 C134.36786255 215.51232544 134.36786255 215.51232544 133.375 214.625 C132.00107787 213.37133942 130.62738643 212.117426 129.25390625 210.86328125 C128.54766113 210.22342285 127.84141602 209.58356445 127.11376953 208.92431641 C123.81479905 205.92102635 120.5659992 202.86485224 117.3125 199.8125 C110.91378657 193.83242535 104.46953773 187.90330258 98 182 C93.69974489 183.34435864 89.73068032 184.99268479 85.68359375 186.96875 C84.50732422 187.53980469 83.33105469 188.11085938 82.11914062 188.69921875 C80.89180715 189.29923391 79.66459463 189.89949654 78.4375 190.5 C76.02061071 191.67932742 73.60233364 192.85571323 71.18359375 194.03125 C69.58342407 194.81338867 69.58342407 194.81338867 67.95092773 195.61132812 C65.33031871 196.8445559 62.70168043 197.95889963 60 199 C61.77945087 203.04420651 64.39529673 206.46078487 67 210 C65.59284684 213.40062014 63.97131772 214.89229698 61 217 C60.5875 216.60731934 60.175 216.21463867 59.75 215.81005859 C57.83739298 213.9940425 55.91875015 212.18452339 54 210.375 C53.35160156 209.75753906 52.70320313 209.14007812 52.03515625 208.50390625 C45.69224852 202.53780492 40.10727591 197.63285245 31.8203125 194.65234375 C24.61910199 191.8917471 18.07183634 188.98614348 13 183 C9.63005115 173.78245675 10.43203313 163.64597933 10.7893219 153.97488403 C11.1325193 144.5384246 10.61462077 135.17554653 10.08883667 125.75402832 C9.93940336 122.97292344 9.8115845 120.19170071 9.69165039 117.40917969 C9.63408066 116.10893608 9.63408066 116.10893608 9.5753479 114.78242493 C9.50373454 113.15898106 9.43432124 111.53543806 9.36752319 109.91178894 C9.18744034 104.86316823 9.18744034 104.86316823 8 100 C5.54497402 98.39456535 3.22942071 97.05705129 0.625 95.75 C-0.06078125 95.38648438 -0.7465625 95.02296875 -1.453125 94.6484375 C-5.51427334 92.54483758 -5.51427334 92.54483758 -10 92 C-10.32572998 92.60658447 -10.65145996 93.21316895 -10.98706055 93.83813477 C-17.8306816 106.56681632 -24.75879151 119.23624295 -31.94799805 131.77368164 C-32.46531494 132.67981201 -32.98263184 133.58594238 -33.515625 134.51953125 C-33.97227539 135.31464111 -34.42892578 136.10975098 -34.89941406 136.92895508 C-36.12371757 139.09458355 -36.12371757 139.09458355 -37 142 C-35.9171875 142.79664063 -35.9171875 142.79664063 -34.8125 143.609375 C-33.884375 144.31578125 -32.95625 145.0221875 -32 145.75 C-31.071875 146.44609375 -30.14375 147.1421875 -29.1875 147.859375 C-28.465625 148.56578125 -27.74375 149.2721875 -27 150 C-27 153.76687864 -27.23537317 154.91190305 -29 158 C-33.39505045 157.39511076 -36.6210003 155.76369471 -40.48046875 153.61328125 C-41.09336258 153.27378952 -41.70625641 152.93429779 -42.33772278 152.58451843 C-44.29121665 151.50011943 -46.23925267 150.40629102 -48.1875 149.3125 C-49.47689084 148.59642383 -50.76660178 147.88092373 -52.05664062 147.16601562 C-59.11720134 143.24152767 -66.10958783 139.21781638 -73 135 C-72.45276317 131.62537285 -71.9451 129.91765 -70 127 C-69.34773438 127.20496094 -68.69546875 127.40992188 -68.0234375 127.62109375 C-66.71246094 128.02521484 -66.71246094 128.02521484 -65.375 128.4375 C-64.51648437 128.70433594 -63.65796875 128.97117187 -62.7734375 129.24609375 C-59.86386562 130.03700554 -56.97529286 130.52330556 -54 131 C-53.64397705 130.33282959 -53.2879541 129.66565918 -52.92114258 128.97827148 C-46.031576 116.08388517 -39.06418247 103.25219529 -31.82739258 90.54858398 C-27.96174465 83.7460971 -24.20760282 76.88976246 -20.5 70 C-16.16677813 61.95137251 -11.75635248 53.95304613 -7.25 46 C-6.4453833 44.57627075 -6.4453833 44.57627075 -5.62451172 43.1237793 C-3.16363301 38.77839954 -0.68306061 34.44735149 1.8515625 30.14453125 C2.28114258 29.40654297 2.71072266 28.66855469 3.15332031 27.90820312 C3.94173943 26.55572717 4.73990989 25.20886684 5.54980469 23.86914062 C6.92387122 21.49916725 7.9877546 19.61560977 8.04296875 16.83984375 C6.50176593 14.12109271 4.41396785 12.63086166 1.9375 10.75 C0.55884766 9.69039063 0.55884766 9.69039063 -0.84765625 8.609375 C-1.55792969 8.07828125 -2.26820312 7.5471875 -3 7 C-2.01 4.69 -1.02 2.38 0 0 Z " fill="#484848" transform="translate(1277,376)"/>
<path d="M0 0 C3.40827443 0.71380368 6.34352133 1.98200855 9.49609375 3.44921875 C11.14907471 4.21625122 11.14907471 4.21625122 12.83544922 4.9987793 C14.02412598 5.55605713 15.21280273 6.11333496 16.4375 6.6875 C17.04837463 6.9735611 17.65924927 7.25962219 18.28863525 7.55435181 C21.52922153 9.07237585 24.76761579 10.59496923 28.00439453 12.12109375 C30.64218948 13.36381044 33.28368553 14.59802163 35.92919922 15.82421875 C64.51410032 29.0789192 64.51410032 29.0789192 75 38 C75.71414063 38.59941406 76.42828125 39.19882813 77.1640625 39.81640625 C84.65777343 46.68829861 89.48169466 55.67667486 90.3125 65.8125 C89.93103284 77.48090719 83.679918 88.91025131 75.8359375 97.28515625 C66.0742029 106.40303176 54.50262674 107.43468361 41.72265625 107.203125 C38.87515206 107.04775226 36.69694346 106.74362469 34 106 C36.47319168 123.70002054 39.09661574 141.3651291 42 159 C42.17587646 160.07644775 42.35175293 161.15289551 42.53295898 162.26196289 C42.79701538 163.86672485 42.79701538 163.86672485 43.06640625 165.50390625 C43.22568604 166.47400635 43.38496582 167.44410645 43.54907227 168.44360352 C44.63829733 174.61863097 46.1306873 177.94223941 51 182 C54.27303251 184.11017869 57.60989549 186.08442638 61 188 C60.46292236 191.86695903 59.41445371 193.97060499 57 197 C52.75417119 195.11926919 48.51913314 193.21665312 44.29248047 191.29321289 C42.85381495 190.64226455 41.4124067 189.99734243 39.96826172 189.35864258 C37.89056805 188.43848024 35.82376291 187.49696263 33.7578125 186.55078125 C33.11192169 186.27035477 32.46603088 185.98992828 31.80056763 185.70100403 C29.00992094 184.40012974 27.25327478 183.42171258 25.64941406 180.7512207 C24.84162323 177.32904217 24.28505015 173.91495248 23.8515625 170.4296875 C23.75412247 169.6875148 23.65668243 168.9453421 23.55628967 168.18067932 C23.23890635 165.74629425 22.93158322 163.31076698 22.625 160.875 C22.40755873 159.18234081 22.18986346 157.48971423 21.97192383 155.79711914 C20.46561539 144.02001489 19.04860943 132.23221184 17.6875 120.4375 C17.60050842 119.68861511 17.51351685 118.93973022 17.42388916 118.16815186 C17.17888152 116.04867479 16.93817769 113.92876037 16.69921875 111.80859375 C16.56346436 110.61032959 16.42770996 109.41206543 16.2878418 108.17749023 C16.03857552 105.42583577 15.94185862 102.7599293 16 100 C15.236875 99.773125 14.47375 99.54625 13.6875 99.3125 C9.47687157 97.81380174 5.51712221 95.95148587 1.48828125 94.0234375 C-1.01399201 92.80980767 -1.01399201 92.80980767 -4 93 C-13.77700984 113.83360565 -13.77700984 113.83360565 -23.375 134.75 C-23.74939209 135.56952148 -24.12378418 136.38904297 -24.50952148 137.23339844 C-26.34282191 140.96746379 -26.34282191 140.96746379 -27 145 C-25.21601386 146.28006797 -23.37146094 147.47660351 -21.5 148.625 C-20.4790625 149.25664063 -19.458125 149.88828125 -18.40625 150.5390625 C-17.6121875 151.02117187 -16.818125 151.50328125 -16 152 C-16.46183818 156.15654359 -16.88009102 158.21466571 -20 161 C-24.01734138 159.13699183 -28.03337411 157.27119659 -32.04833984 155.40307617 C-33.40737931 154.77116915 -34.76674194 154.13995656 -36.12646484 153.50952148 C-45.50013239 149.16266529 -54.78392344 144.67272511 -64 140 C-63.45276317 136.62537285 -62.9451 134.91765 -61 132 C-57.34056353 132.68907122 -53.77558041 133.56821266 -50.1875 134.5625 C-48.72376953 134.96662109 -48.72376953 134.96662109 -47.23046875 135.37890625 C-46.12638672 135.68634766 -46.12638672 135.68634766 -45 136 C-44.60977661 134.74086792 -44.60977661 134.74086792 -44.21166992 133.45629883 C-42.91008372 129.74351303 -41.31767811 126.23776112 -39.61328125 122.69921875 C-39.27988235 121.99906143 -38.94648346 121.29890411 -38.60298157 120.57752991 C-37.88447105 119.06866506 -37.16457208 117.56046076 -36.44342041 116.05285645 C-30.05584998 102.69304726 -23.81263614 89.27691362 -17.73544312 75.77340698 C-13.87661525 67.20892848 -9.92591147 58.69423724 -5.875 50.21875 C-5.43892426 49.30579163 -5.00284851 48.39283325 -4.55355835 47.45220947 C-2.4048131 42.95825202 -0.24789013 38.46842431 1.91943359 33.98339844 C2.70421857 32.34836345 3.48889207 30.71327495 4.2734375 29.078125 C4.63622803 28.33381226 4.99901855 27.58949951 5.37280273 26.82263184 C5.70530029 26.12738403 6.03779785 25.43213623 6.38037109 24.71582031 C6.67044037 24.11586243 6.96050964 23.51590454 7.2593689 22.89776611 C8.24237909 20.54125131 8.24237909 20.54125131 9 16 C5.04 13.36 1.08 10.72 -3 8 C-1 2 -1 2 0 0 Z " fill="#484848" transform="translate(719,1443)"/>
<path d="M0 0 C11.54962891 7.1415921 18.8305392 16.24161759 23.125 29.125 C24.22101975 40.32005883 22.1692334 51.0365332 17.125 61.125 C20.09248462 62.60874231 23.23870223 62.66074763 26.5 62.9921875 C27.24873886 63.07153534 27.99747772 63.15088318 28.76890564 63.2326355 C31.22058696 63.49187954 33.67277702 63.74593537 36.125 64 C39.50149431 64.35495965 42.87771125 64.71251843 46.25390625 65.0703125 C47.09562881 65.15917725 47.93735138 65.24804199 48.80458069 65.33959961 C57.28802804 66.2392711 65.76024436 67.22816406 74.22851562 68.26123047 C83.29186639 69.34041702 88.70914018 69.87549399 96.125 64.125 C98.56943303 61.88850551 100.87929192 59.56018969 103.125 57.125 C105.61861571 58.32881448 107.80643083 59.57928722 110.125 61.125 C109.55884016 65.00850268 107.78655353 66.88270314 105.125 69.6875 C99.42601801 75.83328218 93.78159585 82.14010623 89.125 89.125 C74.4133449 87.74804706 59.82586571 85.70563889 45.20703125 83.57128906 C39.18694914 82.69955981 33.1580569 81.90166939 27.125 81.125 C26.43954102 81.03476562 25.75408203 80.94453125 25.04785156 80.8515625 C22.8656566 80.56435498 20.68291843 80.28165093 18.5 80 C17.20835937 79.83242188 15.91671875 79.66484375 14.5859375 79.4921875 C13.44382812 79.37101563 12.30171875 79.24984375 11.125 79.125 C9.80242187 78.95097656 9.80242187 78.95097656 8.453125 78.7734375 C4.94349557 79.3034151 3.74335781 81.20763986 1.5 83.875 C0.36691406 85.19757813 0.36691406 85.19757813 -0.7890625 86.546875 C-4.41135077 90.39510824 -4.41135077 90.39510824 -5.875 95.125 C-4.38761765 96.47882149 -2.83069449 97.75639886 -1.25 99 C3.28578465 102.6262957 7.73134783 106.327957 12.125 110.125 C20.58028107 117.40529651 29.1351165 124.50980271 38.125 131.125 C41.425 128.155 44.725 125.185 48.125 122.125 C53.75 124.375 53.75 124.375 56.125 128.125 C55.29097656 129.08019531 54.45695313 130.03539062 53.59765625 131.01953125 C46.97608037 138.62032646 40.4636525 146.28539153 34.125 154.125 C32.44007004 156.18961398 30.75115266 158.2509256 29.0625 160.3125 C28.30839844 161.23417969 27.55429687 162.15585937 26.77734375 163.10546875 C26.23207031 163.77191406 25.68679688 164.43835938 25.125 165.125 C21.92434008 164.40932449 20.03171963 163.93490262 18.125 161.125 C18.125 156.72722514 20.60585891 153.52278639 22.96875 149.9921875 C24.28672777 148.02416091 24.28672777 148.02416091 25.125 145.125 C24.33802734 144.80208984 24.33802734 144.80208984 23.53515625 144.47265625 C20.17962894 142.59638895 17.43416687 140.09006735 14.5625 137.5625 C13.30164893 136.46644897 12.03992167 135.37140511 10.77734375 134.27734375 C10.15585449 133.73835449 9.53436523 133.19936523 8.89404297 132.64404297 C6.50619681 130.59364567 4.07085215 128.60566779 1.625 126.625 C-3.22096789 122.6912143 -7.95598528 118.64052241 -12.68359375 114.56640625 C-16.20817903 111.53541716 -19.76548832 108.55507419 -23.375 105.625 C-27.6029248 102.19291987 -31.7502789 98.67948829 -35.875 95.125 C-40.88320814 90.80991325 -45.95074438 86.58275937 -51.08203125 82.4140625 C-54.28925134 79.78548772 -57.46019126 77.11683936 -60.625 74.4375 C-61.17800781 73.97174561 -61.73101562 73.50599121 -62.30078125 73.02612305 C-64.61025671 71.07541121 -66.89188397 69.10941253 -69.11328125 67.05859375 C-71.06223669 65.20832679 -71.06223669 65.20832679 -73.875 63.125 C-78.38307727 63.43402143 -80.75904638 66.69026336 -83.77734375 69.7265625 C-85.875 71.125 -85.875 71.125 -88.515625 70.93359375 C-91.04245739 70.0676098 -92.19081407 69.16375139 -93.875 67.125 C-92.35633302 63.72756975 -90.37220998 61.10881716 -88 58.25 C-87.19820313 57.28320312 -86.39640625 56.31640625 -85.5703125 55.3203125 C-82.18651526 51.29341793 -78.75627551 47.30627467 -75.32104492 43.32324219 C-72.25611959 39.76284252 -69.25982492 36.15911179 -66.3125 32.5 C-50.8858484 13.55841513 -26.97045605 -13.59720501 0 0 Z " fill="#484848" transform="translate(522.875,552.875)"/>
<path d="M0 0 C2.67905603 1.14560257 3.70370025 2.56184812 5.43896484 4.89599609 C6.07632568 5.74282959 6.71368652 6.58966309 7.37036133 7.4621582 C8.04526611 8.38134033 8.7201709 9.30052246 9.41552734 10.24755859 C10.11943604 11.19058838 10.82334473 12.13361816 11.54858398 13.10522461 C13.00744698 15.06309045 14.46158379 17.02448619 15.91113281 18.98925781 C17.89078168 21.66979589 19.88622776 24.3375678 21.88818359 27.00146484 C40.68381695 52.10430698 40.68381695 52.10430698 46.04052734 65.87255859 C46.40275391 66.76716797 46.76498047 67.66177734 47.13818359 68.58349609 C49.71914693 77.99116332 49.68600959 89.86461228 45.41552734 98.68505859 C44.34581921 100.4489653 43.22574846 102.18409975 42.04052734 103.87255859 C41.61900391 104.51966797 41.19748047 105.16677734 40.76318359 105.83349609 C33.45038212 115.65798926 19.97153893 122.98595647 8.04052734 124.87255859 C-9.9243562 125.94018596 -22.36281157 120.72002737 -35.95947266 108.93505859 C-43.32158914 102.16275225 -49.11779745 93.94538969 -54.95947266 85.87255859 C-59.62152055 87.36826252 -62.95109219 90.09239562 -66.64697266 93.18505859 C-75.13490791 100.1441111 -84.00917641 106.52561971 -92.95947266 112.87255859 C-92.39357422 113.82517578 -91.82767578 114.77779297 -91.24462891 115.75927734 C-90.50336985 117.02598585 -89.76250516 118.2929252 -89.02197266 119.56005859 C-88.46219727 120.49881836 -88.46219727 120.49881836 -87.89111328 121.45654297 C-85.88006054 124.91700308 -84.44671601 127.82766536 -83.95947266 131.87255859 C-87.42447266 133.85255859 -87.42447266 133.85255859 -90.95947266 135.87255859 C-98.97494056 125.41603064 -106.96653623 114.94072739 -114.83447266 104.37255859 C-115.42244629 103.59098389 -116.01041992 102.80940918 -116.61621094 102.00415039 C-119.27154913 98.41846037 -121.60764951 95.1847033 -122.95947266 90.87255859 C-120.64947266 89.55255859 -118.33947266 88.23255859 -115.95947266 86.87255859 C-115.07195312 87.86449219 -115.07195312 87.86449219 -114.16650391 88.87646484 C-113.37630859 89.72080078 -112.58611328 90.56513672 -111.77197266 91.43505859 C-110.99466797 92.28197266 -110.21736328 93.12888672 -109.41650391 94.00146484 C-107.1483392 96.1141324 -107.1483392 96.1141324 -104.50244141 95.90380859 C-101.34213706 94.62221052 -99.12072421 92.95265225 -96.45947266 90.81005859 C-95.30660681 89.8963132 -94.15289985 88.98362845 -92.99853516 88.07177734 C-92.36077148 87.56437012 -91.72300781 87.05696289 -91.06591797 86.53417969 C-87.02659486 83.34785225 -82.92768116 80.23914846 -78.83447266 77.12255859 C-77.93341797 76.43540771 -77.03236328 75.74825684 -76.10400391 75.0402832 C-69.49971048 70.01484335 -62.83482052 65.07795346 -56.14038086 60.17358398 C-47.4107972 53.76363523 -38.82091177 47.17195246 -30.21679688 40.59521484 C-20.55951387 33.225348 -10.76689699 26.04055316 -0.95947266 18.87255859 C-1.56302674 15.0222998 -2.72719868 12.011547 -4.52197266 8.56005859 C-4.97701172 7.67705078 -5.43205078 6.79404297 -5.90087891 5.88427734 C-6.25021484 5.22041016 -6.59955078 4.55654297 -6.95947266 3.87255859 C-2.55367678 -0.16608763 -2.55367678 -0.16608763 0 0 Z " fill="#484848" transform="translate(540.95947265625,1261.12744140625)"/>
<path d="M0 0 C0.99 2.64 1.98 5.28 3 8 C-0.96 10.31 -4.92 12.62 -9 15 C-8.3208335 19.07499902 -7.79654039 21.95488145 -6.38037109 25.65209961 C-6.04790878 26.52825424 -5.71544647 27.40440887 -5.37290955 28.30711365 C-5.01008377 29.24603958 -4.647258 30.18496552 -4.2734375 31.15234375 C-3.89373306 32.14810928 -3.51402863 33.14387482 -3.12281799 34.16981506 C-1.8789246 37.42779608 -0.62705577 40.68264809 0.625 43.9375 C1.49061398 46.19969345 2.35576279 48.46206495 3.22045898 50.72460938 C5.39798309 56.41784762 7.5822522 62.10846747 9.76934814 67.79803467 C10.91613029 70.78178402 12.06166069 73.76600951 13.20654297 76.75048828 C20.76013825 96.45524739 20.76013825 96.45524739 28.38887024 116.13098145 C29.12387181 118.01515108 29.85677221 119.90013994 30.58959961 121.78515625 C31.45846662 124.01862132 32.3313722 126.25052158 33.20922852 128.48046875 C33.76888306 129.92099609 33.76888306 129.92099609 34.33984375 131.390625 C34.66331787 132.21594727 34.98679199 133.04126953 35.32006836 133.89160156 C36 136 36 136 36 139 C36.89203125 138.77183594 37.7840625 138.54367187 38.703125 138.30859375 C39.87359375 138.02113281 41.0440625 137.73367188 42.25 137.4375 C43.41015625 137.14746094 44.5703125 136.85742188 45.765625 136.55859375 C48.71706924 136.04886365 50.2951673 135.79430806 53 137 C54.52164099 139.89111788 55 141.71823412 55 145 C53.64648438 145.45826172 53.64648438 145.45826172 52.265625 145.92578125 C41.13627396 149.75198976 30.19568498 154.01861512 19.27246094 158.3918457 C18.10102539 158.8580835 16.92958984 159.32432129 15.72265625 159.8046875 C14.66828369 160.22733887 13.61391113 160.64999023 12.52758789 161.08544922 C10 162 10 162 8 162 C7.01 159.36 6.02 156.72 5 154 C10.94 150.535 10.94 150.535 17 147 C16.43790501 140.34102068 14.15164961 134.57717237 11.74609375 128.37890625 C11.11562889 126.72905983 11.11562889 126.72905983 10.47242737 125.04588318 C9.13426376 121.54876568 7.78604089 118.05562723 6.4375 114.5625 C5.52602534 112.18580271 4.61521057 109.80885223 3.70507812 107.43164062 C1.47768848 101.61813891 -0.75796298 95.80786739 -3 90 C-6.51299286 90.62018069 -9.6833554 91.53494094 -13.0078125 92.82250977 C-13.98073242 93.19702774 -14.95365234 93.57154572 -15.95605469 93.95741272 C-17.00180664 94.36463058 -18.04755859 94.77184845 -19.125 95.19140625 C-20.22231445 95.61493881 -21.31962891 96.03847137 -22.45019531 96.47483826 C-25.96827193 97.83361253 -29.48418321 99.19789045 -33 100.5625 C-35.30454019 101.45415686 -37.60922632 102.34543665 -39.9140625 103.23632812 C-41.61163696 103.89258682 -41.61163696 103.89258682 -43.34350586 104.56210327 C-45.02972046 105.21392075 -45.02972046 105.21392075 -46.75 105.87890625 C-47.86705322 106.31079254 -48.98410645 106.74267883 -50.13500977 107.18765259 C-52.34562217 108.04224231 -54.5563141 108.89662637 -56.76708984 109.75079346 C-58.91085369 110.57915048 -61.05441077 111.4080428 -63.19775391 112.23748779 C-66.15134605 113.3792452 -69.10663514 114.51648542 -72.0625 115.65234375 C-73.38362793 116.16433067 -73.38362793 116.16433067 -74.73144531 116.68666077 C-75.53291992 116.99365402 -76.33439453 117.30064728 -77.16015625 117.61694336 C-77.85761963 117.88566757 -78.55508301 118.15439178 -79.27368164 118.43125916 C-81 119 -81 119 -83 119 C-82.5467334 120.15822266 -82.0934668 121.31644531 -81.62646484 122.50976562 C-79.91439715 126.88546348 -78.20382129 131.26174334 -76.49365234 135.63818359 C-75.75902111 137.51756974 -75.02400719 139.39680635 -74.28857422 141.27587891 C-69.77129155 152.81867624 -65.31148508 164.37863495 -61 176 C-59.94039062 175.76966064 -59.94039062 175.76966064 -58.859375 175.53466797 C-54.1677193 174.52496612 -49.82811374 173.74588875 -45 174 C-43.74335022 176.90600261 -43 178.79604584 -43 182 C-47.9802225 183.93951658 -52.96069991 185.87837667 -57.94140625 187.81665039 C-59.63288134 188.47500219 -61.32428878 189.13352784 -63.015625 189.79223633 C-65.45815193 190.74346807 -67.90092806 191.6940574 -70.34375 192.64453125 C-71.08991577 192.9352803 -71.83608154 193.22602936 -72.6048584 193.52558899 C-74.03547916 194.08195818 -75.46689148 194.63629722 -76.89916992 195.18838501 C-78.33922128 195.74472094 -79.77678062 196.30753817 -81.2121582 196.87582397 C-84.27700604 198.06934477 -86.6804397 199 -90 199 C-92.03307888 194.69465649 -92.03307888 194.69465649 -91.90625 192.03125 C-90.53689105 188.96199718 -88.38511574 188.24074819 -85.4375 186.75 C-84.42558594 186.22921875 -83.41367187 185.7084375 -82.37109375 185.171875 C-81.58863281 184.78515625 -80.80617188 184.3984375 -80 184 C-82.0453908 176.79145169 -84.48835961 169.80941266 -87.18359375 162.8203125 C-87.79566681 161.22036942 -87.79566681 161.22036942 -88.42010498 159.58810425 C-89.75586009 156.09909834 -91.09670101 152.6120703 -92.4375 149.125 C-93.36986983 146.69152971 -94.30191269 144.25793413 -95.23364258 141.82421875 C-100.05928947 129.22729384 -104.90848635 116.63949864 -109.765625 104.0546875 C-110.68564693 101.66911527 -111.60565051 99.28353597 -112.52563477 96.89794922 C-114.27216553 92.36938855 -116.02323016 87.84261742 -117.77709961 83.31689453 C-118.57417354 81.25297508 -119.37113603 79.18901259 -120.16796875 77.125 C-120.52848328 76.19823456 -120.8889978 75.27146912 -121.26043701 74.31661987 C-123.08234307 69.58731734 -124.70042754 64.8995759 -126 60 C-126.81984375 60.2165625 -127.6396875 60.433125 -128.484375 60.65625 C-129.56203125 60.9346875 -130.6396875 61.213125 -131.75 61.5 C-132.81734375 61.7784375 -133.8846875 62.056875 -134.984375 62.34375 C-138 63 -138 63 -142 63 C-144.06112323 58.63526846 -144.06112323 58.63526846 -143.8026886 55.94929504 C-143 54 -143 54 -141.31217957 52.90483093 C-140.58033951 52.62645889 -139.84849945 52.34808685 -139.09448242 52.0612793 C-138.26659714 51.7380217 -137.43871185 51.4147641 -136.58573914 51.08171082 C-135.68474991 50.74923843 -134.78376068 50.41676605 -133.85546875 50.07421875 C-132.93413651 49.72237015 -132.01280426 49.37052155 -131.06355286 49.00801086 C-129.11189041 48.26685899 -127.15724747 47.53351601 -125.19995117 46.80737305 C-122.20273013 45.69316177 -119.21739907 44.5508493 -116.23242188 43.40429688 C-114.33657993 42.68840057 -112.44011464 41.97415238 -110.54296875 41.26171875 C-109.64805222 40.91912521 -108.75313568 40.57653168 -107.83110046 40.22355652 C-106.9937587 39.91605972 -106.15641693 39.60856293 -105.29370117 39.29174805 C-104.19236092 38.88015694 -104.19236092 38.88015694 -103.06877136 38.46025085 C-100.65851464 37.92402789 -99.29261484 38.11587277 -97 39 C-95.27898465 41.58152302 -95 42.84918025 -95 46 C-97.625 47.82421875 -97.625 47.82421875 -101 49.6875 C-102.11375 50.31011719 -103.2275 50.93273437 -104.375 51.57421875 C-105.24125 52.04472656 -106.1075 52.51523437 -107 53 C-106.39712143 56.36345715 -105.56550965 59.43071024 -104.34179688 62.61914062 C-103.83622253 63.94576721 -103.83622253 63.94576721 -103.32043457 65.29919434 C-102.77510071 66.71343689 -102.77510071 66.71343689 -102.21875 68.15625 C-101.84520386 69.13613892 -101.47165771 70.11602783 -101.08679199 71.12561035 C-99.89492575 74.25184751 -98.69808099 77.37613969 -97.5 80.5 C-95.92260121 84.61288845 -94.35034542 88.72768766 -92.78125 92.84375 C-92.23591614 94.25799255 -92.23591614 94.25799255 -91.67956543 95.70080566 C-91.17399109 97.02743225 -91.17399109 97.02743225 -90.65820312 98.38085938 C-90.21305359 99.5407135 -90.21305359 99.5407135 -89.75891113 100.72399902 C-88.95664 103.13003816 -88.44710354 105.50561115 -88 108 C-87.44393066 107.76627686 -86.88786133 107.53255371 -86.31494141 107.29174805 C-70.30468632 100.59727171 -54.14630225 94.30573903 -37.93280029 88.12197876 C-35.64118638 87.24781787 -33.35021194 86.37197877 -31.05987549 85.49447632 C-27.80234597 84.24746662 -24.54225508 83.00741924 -21.28125 81.76953125 C-20.28858124 81.38878448 -19.29591248 81.00803772 -18.27316284 80.61575317 C-16.90141403 80.09789749 -16.90141403 80.09789749 -15.50195312 79.56958008 C-14.70180786 79.26522537 -13.9016626 78.96087067 -13.07727051 78.64729309 C-11 78 -11 78 -8 78 C-10.04394501 72.5411478 -12.08865641 67.08258347 -14.1340332 61.62426758 C-14.8275957 59.77310669 -15.52096027 57.92187163 -16.21411133 56.07055664 C-17.21902369 53.3866788 -18.224627 50.70306091 -19.23046875 48.01953125 C-19.55610809 47.14990753 -19.88174744 46.28028381 -20.21725464 45.38430786 C-22.48575563 39.33738991 -24.80650747 33.31361049 -27.1809082 27.30737305 C-28 25 -28 25 -28 23 C-29.33804688 23.34224609 -29.33804688 23.34224609 -30.703125 23.69140625 C-31.87359375 23.97886719 -33.0440625 24.26632812 -34.25 24.5625 C-35.41015625 24.85253906 -36.5703125 25.14257812 -37.765625 25.44140625 C-41 26 -41 26 -45 25 C-45.99 21.04 -45.99 21.04 -47 17 C-45.81446533 16.5560791 -44.62893066 16.1121582 -43.4074707 15.65478516 C-38.99970872 14.00414073 -34.59222084 12.3527655 -30.18481445 10.70117188 C-28.27896446 9.98710585 -26.37304067 9.27323676 -24.46704102 8.55957031 C-21.7239256 7.53242201 -18.98107829 6.50456061 -16.23828125 5.4765625 C-15.38913651 5.15877838 -14.53999176 4.84099426 -13.66511536 4.51358032 C-10.44208364 3.30498145 -7.23021609 2.09491916 -4.04760742 0.78271484 C-2 0 -2 0 0 0 Z " fill="#484848" transform="translate(829,337)"/>
<path d="M0 0 C3.68292226 -0.21477084 7.31423533 -0.15035644 11 0 C11.67466309 0.02271973 12.34932617 0.04543945 13.04443359 0.06884766 C19.58893106 0.39362557 25.72719993 0.80580805 30.59765625 5.5078125 C32.52976266 8.50528599 34.18938163 11.49468262 35.78466797 14.67724609 C38.19332792 19.28069944 41.02015805 23.64489814 43.75 28.0625 C44.96517434 30.06281116 46.17870676 32.06412066 47.390625 34.06640625 C50.72819893 39.56447924 54.10634094 45.03641647 57.5 50.5 C62.63818209 58.77566303 67.71359225 67.08794662 72.76953125 75.4140625 C77.16961484 82.65322442 81.61923694 89.86039467 86.08789062 97.05737305 C90.85222001 104.73978147 95.55543332 112.45874618 100.24414062 120.1875 C100.79263672 121.09113281 101.34113281 121.99476563 101.90625 122.92578125 C102.42703125 123.78510254 102.9478125 124.64442383 103.484375 125.52978516 C105.32273557 128.52600491 107.21719951 131.48433414 109.13476562 134.43041992 C110 136 110 136 110 138 C110.66 138 111.32 138 112 138 C111.96390625 136.84886719 111.9278125 135.69773437 111.890625 134.51171875 C111.8962972 127.23287113 112.89266129 120.0292107 113.75 112.8125 C113.93244662 111.24546074 114.11473583 109.67840315 114.296875 108.11132812 C115.57581278 97.19468064 116.99789649 86.30139474 118.49243164 75.41210938 C120.08469164 63.6900653 121.41021557 51.94106916 122.69335938 40.18164062 C122.77354813 39.45748459 122.85373688 38.73332855 122.93635559 37.98722839 C123.15435218 36.01756119 123.36868029 34.04748895 123.58276367 32.07739258 C124 29 124 29 125 26 C124.16855469 25.79503906 123.33710937 25.59007812 122.48046875 25.37890625 C121.39378906 25.10949219 120.30710937 24.84007812 119.1875 24.5625 C118.10855469 24.29566406 117.02960938 24.02882813 115.91796875 23.75390625 C113.9259157 23.23922588 111.95188476 22.65062825 110 22 C110.33 19.03 110.66 16.06 111 13 C125.10352051 14.13954301 139.03330528 15.72776116 153 18 C153 20.97 153 23.94 153 27 C147.72 27 142.44 27 137 27 C136.80470703 29.77083984 136.80470703 29.77083984 136.60546875 32.59765625 C136.04090266 39.90548649 135.21198597 47.16422729 134.3125 54.4375 C134.13992968 55.84976673 133.96740522 57.26203906 133.79492188 58.67431641 C132.14921922 72.07133872 130.37455298 85.45149477 128.6098938 98.83325195 C126.69198499 113.3988251 124.90241409 127.97277225 123.29296875 142.57568359 C122.3166538 151.40319795 121.20984902 160.20188368 120 169 C109.81109912 169.15207315 109.81109912 169.15207315 106 168 C104.39770508 166.12084961 104.39770508 166.12084961 103.01953125 163.65234375 C102.24138062 162.2921814 102.24138062 162.2921814 101.44750977 160.90454102 C100.90795654 159.92541748 100.36840332 158.94629395 99.8125 157.9375 C98.65267887 155.90271176 97.49121019 153.86886176 96.328125 151.8359375 C95.76029297 150.83401367 95.19246094 149.83208984 94.60742188 148.79980469 C92.51766191 145.15986434 90.31403916 141.60385617 88.0625 138.0625 C84.03540068 131.68694852 80.09965846 125.25919121 76.1875 118.8125 C71.72245731 111.45703739 67.22911816 104.12092442 62.6875 96.8125 C56.83379278 87.38890803 51.07443935 77.90929913 45.33276367 68.41723633 C41.94369168 62.81890532 38.53547288 57.23441417 35.0625 51.6875 C34.15661133 50.23923828 34.15661133 50.23923828 33.23242188 48.76171875 C32.10826955 46.96966532 30.97962241 45.18042066 29.84570312 43.39453125 C29.35005859 42.60433594 28.85441406 41.81414062 28.34375 41 C27.91255859 40.319375 27.48136719 39.63875 27.03710938 38.9375 C25.98017907 36.96297107 25.4419457 35.18775331 25 33 C24.34 33 23.68 33 23 33 C23.04640625 34.1240625 23.0928125 35.248125 23.140625 36.40625 C23.13522373 43.34147503 22.04219644 50.17569468 21.0920105 57.03070068 C20.50321306 61.28178984 19.93454338 65.5355878 19.36328125 69.7890625 C19.24694839 70.65153595 19.13061554 71.5140094 19.01075745 72.40261841 C17.91553929 80.55178646 16.91219836 88.71066178 15.9375 96.875 C15.61874011 99.53779046 15.29966595 102.20054318 14.98046875 104.86328125 C14.90190643 105.51930832 14.82334412 106.17533539 14.74240112 106.85124207 C13.772986 114.92513777 12.76178572 122.99382336 11.75 131.0625 C11.66096405 131.77283386 11.5719281 132.48316772 11.48019409 133.21502686 C10.9876609 137.14346013 10.49425528 141.07178303 10 145 C11.37285156 145.30744141 11.37285156 145.30744141 12.7734375 145.62109375 C14.55621094 146.02521484 14.55621094 146.02521484 16.375 146.4375 C17.55835938 146.70433594 18.74171875 146.97117187 19.9609375 147.24609375 C23 148 23 148 25 149 C24.67 151.97 24.34 154.94 24 158 C14.93798451 157.14424307 5.90898715 156.0434449 -3.125 154.9375 C-4.66925888 154.74925089 -6.21352963 154.5610991 -7.7578125 154.37304688 C-11.50534601 153.91648584 -15.25271675 153.45861036 -19 153 C-19.125 146.25 -19.125 146.25 -18 144 C-12.72 144 -7.44 144 -2 144 C-1.88269531 142.05738281 -1.76539063 140.11476563 -1.64453125 138.11328125 C-1.07952117 130.22589885 -0.08977178 122.42738163 0.9831543 114.59512329 C1.55762988 110.39552151 2.11591719 106.19375787 2.67578125 101.9921875 C2.78922882 101.14290176 2.90267639 100.29361603 3.01956177 99.41859436 C4.06662991 91.55613918 5.04950096 83.68722273 6 75.8125 C6.1561377 74.51892578 6.31227539 73.22535156 6.47314453 71.89257812 C7.4477436 63.77232164 8.38909293 55.6483236 9.32421875 47.5234375 C9.49402756 46.05111916 9.49402756 46.05111916 9.66726685 44.54905701 C10.22789866 39.68717575 10.78570581 34.82500631 11.33789062 29.9621582 C11.54157483 28.18700118 11.74534661 26.4118542 11.94921875 24.63671875 C12.04071701 23.82161835 12.13221527 23.00651794 12.22648621 22.16671753 C12.62656148 18.70413796 13.10308523 15.36716472 14 12 C13.33613281 11.87882812 12.67226562 11.75765625 11.98828125 11.6328125 C7.46575541 10.77452292 3.20061476 9.96028689 -1 8 C-0.67 5.36 -0.34 2.72 0 0 Z " fill="#484848" transform="translate(1012,317)"/>
<path d="M0 0 C6.41138368 4.19630495 11.84330839 9.30683366 17.27709961 14.67456055 C17.91905273 15.24432617 18.56100586 15.8140918 19.22241211 16.40112305 C32.03671928 28.02340164 41.20551262 46.64830066 42.42944336 63.81079102 C43.45137088 87.52461924 36.60268447 107.50022793 20.65209961 125.29956055 C11.56197277 135.0532838 0.70787055 141.85067929 -11.72290039 146.67456055 C-12.59430664 147.01487305 -13.46571289 147.35518555 -14.36352539 147.70581055 C-29.64986519 152.53307575 -48.28802484 151.38349702 -62.72290039 144.67456055 C-63.63942383 144.26439697 -63.63942383 144.26439697 -64.57446289 143.84594727 C-85.00664157 134.56002655 -103.29925292 116.84301355 -111.32836914 95.65893555 C-112.59903078 92.03488416 -113.7039787 88.3778703 -114.72290039 84.67456055 C-114.90691406 84.0401001 -115.09092773 83.40563965 -115.28051758 82.75195312 C-120.0621922 65.37043804 -116.0088374 46.40502838 -107.63696289 30.8190918 C-104.7312716 26.04545611 -101.41037431 21.86109108 -97.72290039 17.67456055 C-97.05774414 16.8547168 -96.39258789 16.03487305 -95.70727539 15.19018555 C-71.37223915 -13.83159841 -31.89278153 -19.63961616 0 0 Z M-89.72680664 26.90112305 C-100.97077255 40.64644639 -103.00531204 54.40688771 -101.72290039 71.67456055 C-99.23213751 88.95821964 -87.09439052 104.20085794 -73.72290039 114.67456055 C-55.73910036 127.14424377 -36.56080628 134.48618829 -14.58227539 131.20581055 C-0.19064486 127.75181922 12.5133696 118.23808945 20.27709961 105.67456055 C28.84596095 90.68431663 30.94593029 78.25040183 27.31616211 61.42456055 C24.68902364 51.94315856 19.74107422 44.00842822 13.27709961 36.67456055 C12.64416992 35.9475293 12.01124023 35.22049805 11.35913086 34.47143555 C-3.11469756 18.93854651 -24.49379212 8.07679964 -45.66821289 6.44799805 C-63.7575748 5.92846024 -77.81007623 13.66031148 -89.72680664 26.90112305 Z " fill="#484848" transform="translate(1503.722900390625,1304.325439453125)"/>
<path d="M0 0 C1.45019531 0.51046875 1.45019531 0.51046875 2.9296875 1.03125 C21.09186617 7.87095087 33.39002868 21.37628083 41.7265625 38.55859375 C51.11355009 59.6677555 54.11694399 84.90714453 46 107 C42.29538683 116.15343798 37.65403967 124.65098286 31 132 C30.41992188 132.67160156 29.83984375 133.34320312 29.2421875 134.03515625 C15.47482145 148.98340516 -5.22732627 156.28262694 -25.12109375 157.31640625 C-46.3156171 157.99960109 -64.04235632 152.61181831 -80 138 C-90.6188642 127.87184117 -96.84777516 114.90366196 -101 101 C-101.47953125 99.47632813 -101.47953125 99.47632813 -101.96875 97.921875 C-107.7491495 76.19185464 -105.04437441 53.2096069 -94.08056641 33.79931641 C-91.48545031 29.4780318 -88.39395028 25.70919863 -85 22 C-84.40960937 21.31808594 -83.81921875 20.63617187 -83.2109375 19.93359375 C-64.1830321 -0.75419276 -26.45986212 -10.54991287 0 0 Z M-64 20 C-64.63035156 20.41636719 -65.26070312 20.83273437 -65.91015625 21.26171875 C-76.51001809 29.30216065 -83.25660187 43.3017779 -86 56 C-87.79612544 79.45615957 -83.05384813 102.39661294 -68 121 C-67.35675781 121.82886719 -66.71351562 122.65773438 -66.05078125 123.51171875 C-57.34882929 134.01518387 -45.53435147 141.60780739 -32 144 C-16.76835977 145.2817883 -0.52317846 141.95755491 11.9375 132.6875 C23.81732861 122.46012876 31.77399577 109.66903224 33.19628906 93.81152344 C34.75220171 69.94441054 26.49981755 47.15370252 11 29 C10.42636719 28.32582031 9.85273437 27.65164063 9.26171875 26.95703125 C1.8612971 18.95609806 -7.6768852 14.11199247 -18 11 C-18.93779297 10.71189453 -18.93779297 10.71189453 -19.89453125 10.41796875 C-34.89869473 7.43940568 -51.46975479 11.65354661 -64 20 Z " fill="#484848" transform="translate(1193,1495)"/>
<path d="M0 0 C3.42506531 2.90846421 6.72756521 5.9216927 10 9 C10.61617187 9.54011719 11.23234375 10.08023437 11.8671875 10.63671875 C24.96478705 22.61770267 32.15949198 40.17664481 33.21875 57.59765625 C33.54469155 70.73038469 31.1361338 82.38158273 25 94 C24.50757813 94.96550781 24.01515625 95.93101563 23.5078125 96.92578125 C19.06859243 105.11391205 13.44681266 111.39342668 7 118 C6.34257813 118.73089844 5.68515625 119.46179687 5.0078125 120.21484375 C-4.80195612 130.84560159 -17.43369548 136.72429505 -31 141 C-31.8353125 141.26683594 -32.670625 141.53367187 -33.53125 141.80859375 C-52.23430099 146.58314022 -71.6731149 142.3891198 -88.11474609 133.11914062 C-107.78917702 121.43983586 -120.11764896 104.64705313 -127.25 83.25 C-131.66396865 64.12280252 -128.18966433 44.59980623 -118.06640625 27.7890625 C-104.61470606 7.59952318 -86.21299547 -8.82524429 -62 -14.3125 C-39.75954642 -17.74668768 -17.8131469 -14.40898704 0 0 Z M-90.9609375 24.30078125 C-101.95091759 38.84882003 -110.4292951 54.88319199 -110.25 73.5 C-110.25773438 74.30308594 -110.26546875 75.10617187 -110.2734375 75.93359375 C-110.23070585 89.11630737 -105.58528408 101.23513539 -96.37109375 110.69140625 C-95.58863281 111.45324219 -94.80617188 112.21507812 -94 113 C-93.31035156 113.71027344 -92.62070312 114.42054688 -91.91015625 115.15234375 C-81.11525609 125.62560815 -67.55531352 130.44584419 -52.72241211 130.43603516 C-34.83674441 129.9842111 -21.10458913 120.08601451 -8.875 107.87890625 C-0.53627705 99.00272654 5.52369904 88.27836683 10 77 C10.39316406 76.08734375 10.78632812 75.1746875 11.19140625 74.234375 C15.78579752 62.0040094 16.36738393 46.20398882 12.0625 33.8125 C5.21850131 19.17716947 -6.16750511 8.22116919 -20.859375 1.73828125 C-46.98854117 -7.71198824 -73.66752026 3.91162882 -90.9609375 24.30078125 Z " fill="#484848" transform="translate(660,1391)"/>
<path d="M0 0 C0.84158017 3.89409888 1.6718106 7.79053312 2.5 11.6875 C2.85771484 13.34168945 2.85771484 13.34168945 3.22265625 15.02929688 C3.44824219 16.09599609 3.67382812 17.16269531 3.90625 18.26171875 C4.11572266 19.24100342 4.32519531 20.22028809 4.54101562 21.22924805 C4.98235795 23.89350022 5.15995572 26.30611887 5 29 C4 30 4 30 2.15234375 30.09765625 C0.1015625 30.06510417 -1.94921875 30.03255208 -4 30 C-5.17133058 27.54379149 -6.33721722 25.08525083 -7.5 22.625 C-7.83386719 21.92632812 -8.16773438 21.22765625 -8.51171875 20.5078125 C-11 15.2265625 -11 15.2265625 -11 13 C-11.97122803 13.14622803 -12.94245605 13.29245605 -13.94311523 13.44311523 C-17.63423092 13.99676964 -21.32677702 14.54035786 -25.01977539 15.08129883 C-26.60154624 15.31433969 -28.18294622 15.54991539 -29.76391602 15.78833008 C-40.83956435 17.45620071 -51.80829806 18.53037448 -63 19 C-62.85377197 20.02657715 -62.70754395 21.0531543 -62.55688477 22.11083984 C-62.0031917 26.01262184 -61.45961618 29.9157638 -60.91870117 33.81933594 C-60.6856736 35.49125684 -60.45009881 37.16282519 -60.21166992 38.83398438 C-58.54202612 50.55326014 -57.46865362 62.17072013 -57 74 C-53.03470233 73.59151939 -49.06945398 73.18256349 -45.10424805 72.77319336 C-43.10272693 72.56665112 -41.10116852 72.36047029 -39.09960938 72.15429688 C-32.39662678 71.4620493 -25.69598311 70.75706505 -19 70 C-18.67 66.37 -18.34 62.74 -18 59 C-15.36 58.67 -12.72 58.34 -10 58 C-9.3248677 62.35289756 -8.66140624 66.70749743 -8 71.0625 C-7.80921875 72.29162109 -7.6184375 73.52074219 -7.421875 74.78710938 C-7.24140625 75.98271484 -7.0609375 77.17832031 -6.875 78.41015625 C-6.70742188 79.50465088 -6.53984375 80.59914551 -6.3671875 81.72680664 C-5.9800951 85.17743681 -5.93856147 88.53064309 -6 92 C-8.31 92 -10.62 92 -13 92 C-14.32 89.36 -15.64 86.72 -17 84 C-24.61534433 83.79984006 -31.85149933 84.3481261 -39.375 85.5 C-41.27818889 85.78432566 -43.18182446 86.06568064 -45.0859375 86.34375 C-46.3241626 86.53227539 -46.3241626 86.53227539 -47.58740234 86.72460938 C-50.07933195 87.0090555 -52.49413313 87.04686992 -55 87 C-54.82984375 87.89332031 -54.6596875 88.78664063 -54.484375 89.70703125 C-52.46938286 100.79160607 -51.10202008 111.93764746 -49.8125 123.125 C-49.72214478 123.89607086 -49.63178955 124.66714172 -49.53869629 125.46157837 C-49.27696961 127.70558382 -49.02209251 129.95025883 -48.76953125 132.1953125 C-48.62104736 133.50516113 -48.47256348 134.81500977 -48.31958008 136.16455078 C-47.98784049 140.14593269 -47.94533218 144.00786197 -48 148 C-47.19071045 147.88930176 -46.3814209 147.77860352 -45.54760742 147.66455078 C-18.29309323 143.94916839 -18.29309323 143.94916839 -7.1875 142.75 C-6.47424561 142.67023926 -5.76099121 142.59047852 -5.02612305 142.50830078 C0.00774731 141.98803205 4.94687424 141.94060969 10 142 C9.95875 141.16210938 9.9175 140.32421875 9.875 139.4609375 C10.01587991 135.56032504 10.87334227 132.35705372 12 128.625 C12.37125 127.37976563 12.7425 126.13453125 13.125 124.8515625 C13.41375 123.91054688 13.7025 122.96953125 14 122 C16.64 122 19.28 122 22 122 C22 131.9 22 141.8 22 152 C2.64253823 155.20569431 -16.75386013 157.5791891 -36.24536133 159.80517578 C-38.36673285 160.04820923 -40.48807113 160.29153297 -42.609375 160.53515625 C-43.64124435 160.6535083 -44.67311371 160.77186035 -45.73625183 160.89379883 C-53.87795165 161.84035069 -61.99781864 162.91906961 -70.11126709 164.08277893 C-71.38505219 164.26307899 -71.38505219 164.26307899 -72.68457031 164.44702148 C-73.79460419 164.60750221 -73.79460419 164.60750221 -74.92706299 164.77122498 C-77 165 -77 165 -81 165 C-81 162.03 -81 159.06 -81 156 C-75.89063704 153.93832723 -71.48916708 152.74253664 -66 152 C-66.18828369 151.01281982 -66.37656738 150.02563965 -66.57055664 149.00854492 C-68.54534937 138.39813282 -69.95110531 127.7820888 -71.13430786 117.05706787 C-71.6579871 112.31659799 -72.20006972 107.5782351 -72.7421875 102.83984375 C-72.84924515 101.90211121 -72.9563028 100.96437866 -73.06660461 99.99822998 C-73.97337453 92.11056732 -74.98781844 84.24169047 -76.0625 76.375 C-77.42084157 66.38430434 -78.74072317 56.39030762 -79.97750854 46.3838501 C-80.15629241 44.94280693 -80.33699372 43.50200008 -80.51980591 42.0614624 C-81.45714499 34.66178526 -82.22985539 27.46209097 -82 20 C-87.61 20 -93.22 20 -99 20 C-99 17.03 -99 14.06 -99 11 C-97.66545776 10.84180786 -97.66545776 10.84180786 -96.30395508 10.68041992 C-92.13982852 10.18532378 -87.9760345 9.68754825 -83.8125 9.1875 C-83.05305084 9.09629883 -82.29360168 9.00509766 -81.51113892 8.91113281 C-72.88714673 7.87238578 -64.27698058 6.79801851 -55.6875 5.5 C-44.22453719 3.77412112 -32.69488909 2.5907257 -21.1706543 1.35742188 C-20.40528854 1.2748111 -19.63992279 1.19220032 -18.85136414 1.10708618 C-17.40750487 0.95150519 -15.96343278 0.79788187 -14.51911926 0.64657593 C-11.72744421 0.34560468 -9.01418495 0.00320838 -6.2734375 -0.61669922 C-3.83783603 -1.02734079 -2.32309127 -0.77436376 0 0 Z " fill="#484848" transform="translate(967,320)"/>
<path d="M0 0 C2.5 2.3125 2.5 2.3125 5 5 C5 8 5 8 3.03125 10.26171875 C2.1959375 11.06222656 1.360625 11.86273438 0.5 12.6875 C-0.3353125 13.49574219 -1.170625 14.30398438 -2.03125 15.13671875 C-2.6809375 15.75160156 -3.330625 16.36648438 -4 17 C-2.73424249 19.64398662 -1.36324713 22.04867577 0.328125 24.44140625 C0.79081787 25.0974585 1.25351074 25.75351074 1.73022461 26.42944336 C2.23175049 27.13335205 2.73327637 27.83726074 3.25 28.5625 C4.04192749 29.67927124 4.04192749 29.67927124 4.84985352 30.81860352 C9.40030756 37.21079712 14.04661499 43.53053348 18.71362305 49.83789062 C23.24165653 55.95897144 27.72698951 62.1091191 32.16455078 68.29614258 C34.88080884 72.08142504 37.62196081 75.84245682 40.421875 79.56640625 C52.72837278 96.03958786 61.99548728 111.74806043 60 133 C58.36018764 141.16179335 54.70618346 148.191562 50 155 C49.59523438 155.59039063 49.19046875 156.18078125 48.7734375 156.7890625 C38.13653572 170.55830346 18.16678787 182.59170962 1 185 C-12.90336236 186.04761611 -24.04323932 184.0122605 -35 174.74609375 C-35.66 174.16988281 -36.32 173.59367188 -37 173 C-37.804375 172.39542969 -38.60875 171.79085937 -39.4375 171.16796875 C-42.37492369 168.68280084 -44.67326659 165.91318522 -47 162.875 C-47.47002441 162.26881836 -47.94004883 161.66263672 -48.42431641 161.03808594 C-53.9007142 153.91930729 -59.12389312 146.6152845 -64.34716797 139.31005859 C-67.03454083 135.55408784 -69.73491772 131.80753618 -72.4375 128.0625 C-72.96738525 127.32797607 -73.49727051 126.59345215 -74.04321289 125.83666992 C-79.25004592 118.63149217 -84.52782234 111.47918525 -89.80859375 104.328125 C-93.56593427 99.23818104 -97.29123871 94.12546203 -101 89 C-104.72542134 90.19861382 -108.31250159 91.50568254 -111.875 93.125 C-112.65617188 93.47820312 -113.43734375 93.83140625 -114.2421875 94.1953125 C-115.11230469 94.59363281 -115.11230469 94.59363281 -116 95 C-118.0625 92.75 -118.0625 92.75 -120 90 C-119.7789382 87.55528171 -119.39738196 86.38607262 -117.62744141 84.66650391 C-117.04140137 84.27382324 -116.45536133 83.88114258 -115.8515625 83.4765625 C-115.18471436 83.01942871 -114.51786621 82.56229492 -113.83081055 82.09130859 C-113.10289307 81.60742676 -112.37497559 81.12354492 -111.625 80.625 C-110.08055805 79.56986148 -108.53764911 78.51247636 -106.99609375 77.453125 C-106.18382324 76.89689453 -105.37155273 76.34066406 -104.53466797 75.76757812 C-99.34873817 72.15111389 -94.30511764 68.33703507 -89.24658203 64.54541016 C-88.48845215 63.98128418 -87.73032227 63.4171582 -86.94921875 62.8359375 C-86.28237061 62.33626465 -85.61552246 61.8365918 -84.9284668 61.32177734 C-83.01731906 60.01187054 -81.09511668 58.98322563 -79 58 C-76.9375 60.25 -76.9375 60.25 -75 63 C-75.20322457 67.06449137 -77.74664616 69.0531259 -80.5625 71.75 C-81.38878906 72.54921875 -82.21507812 73.3484375 -83.06640625 74.171875 C-83.70449219 74.77515625 -84.34257813 75.3784375 -85 76 C-82.21057438 81.11285307 -79.11057324 85.7014673 -75.5625 90.3125 C-71.15506011 96.11509582 -66.8189507 101.96068559 -62.5625 107.875 C-61.75449951 108.99684692 -61.75449951 108.99684692 -60.93017578 110.14135742 C-58.73638609 113.18988309 -56.54550867 116.24049653 -54.35449219 119.29101562 C-51.11065106 123.8050239 -47.85849991 128.31278177 -44.59082031 132.80957031 C-43.53330898 134.26567707 -42.47795557 135.72335357 -41.42480469 137.18261719 C-26.8525478 157.78460061 -26.8525478 157.78460061 -5 169 C8.76511145 170.59019338 20.37290851 164.01710145 31 156 C39.01307119 149.51935556 43.74892787 141.75321638 47 132 C49.57905822 104.66198289 26.46399544 81.73077489 11.24707031 61.12646484 C2.68493434 49.52484223 -5.80296101 37.86335098 -14 26 C-19.19644079 27.59890486 -24.06612142 29.74138003 -29 32 C-31.0625 29.75 -31.0625 29.75 -33 27 C-32.79555509 24.41416805 -32.3303801 23.31862373 -30.45629883 21.51123047 C-29.79654053 21.05119629 -29.13678223 20.59116211 -28.45703125 20.1171875 C-27.71888184 19.59406982 -26.98073242 19.07095215 -26.22021484 18.53198242 C-25.42566895 17.98517822 -24.63112305 17.43837402 -23.8125 16.875 C-22.6052124 16.024823 -22.6052124 16.024823 -21.37353516 15.1574707 C-19.72318501 13.99576899 -18.06984351 12.83830554 -16.41357422 11.68505859 C-12.87836957 9.2169236 -9.37792009 6.70111613 -5.875 4.1875 C-3.91762412 2.79031765 -1.95884338 1.39512479 0 0 Z " fill="#484848" transform="translate(651,412)"/>
<path d="M0 0 C0.51277829 3.12303802 1.00776825 6.24866322 1.5 9.375 C1.64308594 10.24511719 1.78617188 11.11523438 1.93359375 12.01171875 C2.87740855 18.07909958 3.13276573 23.85958518 3 30 C0.03 30 -2.94 30 -6 30 C-6.83919398 27.73117913 -7.67151724 25.46022973 -8.5 23.1875 C-8.85771484 22.22360352 -8.85771484 22.22360352 -9.22265625 21.24023438 C-10.27068746 18.35066261 -11 16.09923939 -11 13 C-12.19653198 13.04543945 -12.19653198 13.04543945 -13.41723633 13.09179688 C-31.95571263 13.78100883 -50.44573806 14.14821519 -69 14 C-68.93433838 14.63091553 -68.86867676 15.26183105 -68.80102539 15.91186523 C-68.04421062 23.62387028 -67.68672861 31.31901316 -67.4375 39.0625 C-67.37381226 40.96165161 -67.37381226 40.96165161 -67.30883789 42.89916992 C-67.0018306 52.60294773 -66.88304203 62.29248814 -67 72 C-66.32122803 71.96970703 -65.64245605 71.93941406 -64.94311523 71.90820312 C-52.29058381 71.35134182 -39.66655316 70.81463581 -27 71 C-26.855625 69.741875 -26.71125 68.48375 -26.5625 67.1875 C-26.26251314 64.57332877 -25.84186703 62.52560108 -25 60 C-22.69 60 -20.38 60 -18 60 C-17.36077995 71.34615583 -16.83061171 82.63216352 -17 94 C-19.31 94 -21.62 94 -24 94 C-24.66 90.7 -25.32 87.4 -26 84 C-27.44052734 84.10828125 -27.44052734 84.10828125 -28.91015625 84.21875 C-41.2781484 85.07906539 -53.60649997 85.10679802 -66 85 C-65.96970703 85.88856689 -65.93941406 86.77713379 -65.90820312 87.69262695 C-65.25783064 107.13751361 -64.84075032 126.54213927 -65 146 C-63.15535156 145.98259766 -63.15535156 145.98259766 -61.2734375 145.96484375 C-59.64062653 145.95545978 -58.0078139 145.94636023 -56.375 145.9375 C-55.56675781 145.92912109 -54.75851562 145.92074219 -53.92578125 145.91210938 C-49.49658082 145.8941045 -45.36116576 146.10377338 -41 147 C-41 149.97 -41 152.94 -41 156 C-53.28022731 157.0819876 -65.55573697 157.3185049 -77.875 157.5625 C-79.93099635 157.6057995 -81.98698604 157.64941695 -84.04296875 157.69335938 C-89.02857659 157.79923472 -94.01425464 157.90082085 -99 158 C-99 155.03 -99 152.06 -99 149 C-93.71873324 147.23957775 -89.56578651 146.96052634 -84 147 C-84.0501123 145.94055176 -84.10022461 144.88110352 -84.15185547 143.78955078 C-88.60633993 49.02779135 -88.60633993 49.02779135 -88 14 C-88.73605469 13.93941406 -89.47210937 13.87882812 -90.23046875 13.81640625 C-91.20628906 13.73261719 -92.18210937 13.64882812 -93.1875 13.5625 C-94.63189453 13.44068359 -94.63189453 13.44068359 -96.10546875 13.31640625 C-98.78649602 13.02333849 -101.3662986 12.57296246 -104 12 C-104 9.03 -104 6.06 -104 3 C-92.39289136 2.28341519 -80.80181422 1.80651078 -69.17562866 1.5541687 C-52.42457455 1.18958096 -52.42457455 1.18958096 -35.6875 0.4375 C-23.8005277 -0.22939704 -11.90121193 -0.09197227 0 0 Z " fill="#4A4A4A" transform="translate(1070,1516)"/>
<path d="M0 0 C6.84611358 -0.28749278 13.03267155 0.80135846 19.72265625 2.1953125 C20.84844589 2.42329025 21.97423553 2.65126801 23.13414001 2.88615417 C26.77837244 3.62552258 30.42037332 4.37533469 34.0625 5.125 C36.57729054 5.63656331 39.09226548 6.14722093 41.60742188 6.65698242 C45.33983395 7.41354261 49.07213841 8.1705847 52.80386353 8.93052673 C61.85993303 10.77463532 70.9236769 12.57109114 80 14.3125 C81.16450684 14.53655518 82.32901367 14.76061035 83.52880859 14.99145508 C85.81677465 15.43112562 88.10485882 15.87018197 90.39306641 16.30859375 C96.62619366 17.50341008 102.85810699 18.70449656 109.08959961 19.9078064 C111.12920682 20.30125501 113.16908086 20.69329608 115.20898438 21.08520508 C116.43294922 21.32134521 117.65691406 21.55748535 118.91796875 21.80078125 C119.99844482 22.00872314 121.0789209 22.21666504 122.19213867 22.4309082 C124.48279088 22.89517308 126.73997965 23.40697884 129 24 C128.59405385 27.89639563 128.18502045 31.79245387 127.77319336 35.68823242 C127.56527943 37.66112603 127.3597718 39.63427275 127.15429688 41.60742188 C127.02216797 42.85458984 126.89003906 44.10175781 126.75390625 45.38671875 C126.63345947 46.53358154 126.5130127 47.68044434 126.38891602 48.86206055 C126.04756247 51.61624583 125.58830353 54.28936374 125 57 C117.125 56.125 117.125 56.125 116 55 C115.84313751 53.44051458 115.74923361 51.87457332 115.68359375 50.30859375 C115.64169922 49.36435547 115.59980469 48.42011719 115.55664062 47.44726562 C115.51732422 46.45404297 115.47800781 45.46082031 115.4375 44.4375 C115.39431641 43.44041016 115.35113281 42.44332031 115.30664062 41.41601562 C115.20019702 38.9441585 115.09818072 36.4721969 115 34 C114.32807617 33.89187988 113.65615234 33.78375977 112.96386719 33.67236328 C104.03210409 32.21164474 95.14228115 30.55554122 86.25 28.875 C84.76304233 28.59493792 83.27606329 28.31498929 81.7890625 28.03515625 C78.19246167 27.35807498 74.5961501 26.67947166 71 26 C70.9589917 26.7118042 70.9179834 27.4236084 70.87573242 28.15698242 C70.33052976 36.05825668 69.00443891 43.58396286 67.3125 51.3125 C66.7638928 53.89027491 66.21682901 56.46833005 65.671875 59.046875 C65.53221817 59.70466446 65.39256134 60.36245392 65.24867249 61.04017639 C63.76950846 68.03138862 62.40907814 75.04464317 61.0625 82.0625 C60.69789673 83.95971802 60.69789673 83.95971802 60.32592773 85.89526367 C59.9482951 87.86118557 59.57066766 89.82710851 59.19358826 91.7931366 C57.75412691 99.29397121 56.29156533 106.7902936 54.83056641 114.28695679 C52.18747026 127.85176954 49.56610319 141.42037316 47 155 C47.65081543 155.12552246 48.30163086 155.25104492 48.97216797 155.38037109 C53.73969602 156.31416235 58.44616607 157.30532889 63.125 158.625 C64.05570313 158.88539063 64.98640625 159.14578125 65.9453125 159.4140625 C66.62335938 159.60742188 67.30140625 159.80078125 68 160 C67.67 162.97 67.34 165.94 67 169 C60.38758822 168.41616384 53.9792291 167.53962687 47.4765625 166.22265625 C46.60913422 166.05124619 45.74170593 165.87983612 44.84799194 165.70323181 C42.10609699 165.16072978 39.36549934 164.61200451 36.625 164.0625 C33.01351024 163.34257297 29.40148239 162.62540093 25.7890625 161.91015625 C24.93088928 161.73996979 24.07271606 161.56978333 23.1885376 161.3944397 C16.8105882 160.13817694 10.42432668 158.99642281 4 158 C4.33 155.03 4.66 152.06 5 149 C16.385 149.495 16.385 149.495 28 150 C28.26425781 148.3603125 28.52851562 146.720625 28.80078125 145.03125 C30.11412797 137.15807595 31.64982857 129.33151386 33.1875 121.5 C33.49757076 119.91409669 33.80746277 118.32815842 34.1171875 116.7421875 C34.75891536 113.45689634 35.4014013 110.17175483 36.04443359 106.88671875 C37.39218344 99.99840904 38.7304358 93.10825671 40.06890869 86.21813965 C40.49977886 84.00113786 40.9311977 81.78424354 41.36279297 79.56738281 C42.72743249 72.55673473 44.08889506 65.5455071 45.44058228 58.53234863 C46.07680029 55.2322903 46.71460937 51.93254032 47.35253906 48.6328125 C47.65525427 47.06460631 47.95719581 45.49625054 48.25830078 43.92773438 C48.67673125 41.74831075 49.09786359 39.56942427 49.51953125 37.390625 C49.75776611 36.15344727 49.99600098 34.91626953 50.24145508 33.64160156 C51.05678891 29.72736936 52.00675397 25.8725105 53 22 C51.87207031 21.82984375 50.74414062 21.6596875 49.58203125 21.484375 C39.59957103 19.95463158 29.67523988 18.23638777 19.76879883 16.27050781 C18.92728271 16.10518555 18.0857666 15.93986328 17.21875 15.76953125 C16.47560547 15.62104736 15.73246094 15.47256348 14.96679688 15.31958008 C12.83857127 14.91980793 12.83857127 14.91980793 10 15 C7.03 20.61 4.06 26.22 1 32 C-1.97 31.67 -4.94 31.34 -8 31 C-5.62564486 20.56799284 -3.05598707 10.25706297 0 0 Z " fill="#484848" transform="translate(834,1497)"/>
<path d="M0 0 C3.00469351 2.59496258 3.36858796 3.9214699 5 8 C-0.445 12.455 -0.445 12.455 -6 17 C-2.13086029 24.90119056 1.95213854 32.55962576 6.4375 40.125 C7.67768236 42.23402286 8.91724438 44.34341061 10.15625 46.453125 C10.79046875 47.53142578 11.4246875 48.60972656 12.078125 49.72070312 C15.22484133 55.08994775 18.33153961 60.48210835 21.4375 65.875 C22.05866699 66.95265625 22.67983398 68.0303125 23.31982422 69.140625 C25.84590379 73.52359807 28.370662 77.90733176 30.89550781 82.29101562 C32.78398489 85.56931053 34.67320298 88.84717758 36.5625 92.125 C37.17287109 93.18509277 37.78324219 94.24518555 38.41210938 95.33740234 C41.6026246 100.87184899 44.81278357 106.39393905 48.0546875 111.8984375 C48.70622803 113.00687012 49.35776855 114.11530273 50.02905273 115.25732422 C51.2773778 117.37837494 52.52934949 119.49728476 53.78540039 121.61376953 C54.3396167 122.55591309 54.89383301 123.49805664 55.46484375 124.46875 C55.955896 125.29826172 56.44694824 126.12777344 56.95288086 126.98242188 C58 129 58 129 58 131 C74.06299407 121.77138072 90.075816 112.46692981 106 103 C105.70674694 101.26869 105.40735672 99.53841898 105.10546875 97.80859375 C104.93942139 96.84493896 104.77337402 95.88128418 104.60229492 94.88842773 C103.88178321 91.43306736 102.78061768 88.24943346 101.48828125 84.97265625 C100.89657348 82.58215687 101.0976617 81.27984411 102 79 C106.17857143 76 106.17857143 76 109 76 C116.92 90.85 116.92 90.85 125 106 C122.29728312 108.70271688 120.20507241 110.18342961 116.93359375 112.046875 C115.38937744 112.93161499 115.38937744 112.93161499 113.81396484 113.83422852 C112.14261475 114.7825354 112.14261475 114.7825354 110.4375 115.75 C109.2674468 116.41867512 108.0976925 117.08787351 106.92822266 117.75756836 C104.49645633 119.14953254 102.06341756 120.53923202 99.62939453 121.92724609 C94.03377384 125.12019372 88.45461241 128.34168619 82.875 131.5625 C81.81079834 132.17633545 80.74659668 132.7901709 79.65014648 133.42260742 C72.09024741 137.78569678 64.54099353 142.16681879 57 146.5625 C55.55923096 147.40180054 55.55923096 147.40180054 54.08935547 148.25805664 C48.68400437 151.41315827 43.31779077 154.61915574 37.99609375 157.91381836 C36 159 36 159 34 159 C30.92067308 154.89423077 30.92067308 154.89423077 31.171875 152.0625 C32.2524509 149.37125437 33.73280905 148.1158144 35.9375 146.25 C37.00291016 145.32960938 37.00291016 145.32960938 38.08984375 144.390625 C40 143 40 143 42 143 C38.17604089 135.13592258 34.0880723 127.51784337 29.625 120 C28.38686999 117.8965103 27.14993994 115.79231395 25.9140625 113.6875 C25.2737207 112.59695313 24.63337891 111.50640625 23.97363281 110.3828125 C20.60707987 104.61253076 17.3051767 98.80555221 14 93 C9.02362521 84.26546673 4.01222677 75.55291249 -1.0625 66.875 C-2.19143069 64.94272261 -3.32033679 63.01043086 -4.44921875 61.078125 C-5.01817871 60.10423828 -5.58713867 59.13035156 -6.17333984 58.12695312 C-6.7761377 57.09505859 -7.37893555 56.06316406 -8 55 C-8.33420959 54.42822021 -8.66841919 53.85644043 -9.01275635 53.26733398 C-11.13057586 49.64324467 -13.2436827 46.01647282 -15.3510437 42.3862915 C-16.35736698 40.65533028 -17.36821952 38.92700477 -18.37915039 37.19873047 C-18.98364014 36.15604004 -19.58812988 35.11334961 -20.2109375 34.0390625 C-20.75024902 33.11303223 -21.28956055 32.18700195 -21.84521484 31.23291016 C-23 29 -23 29 -23 27 C-23.80824219 27.37253906 -24.61648438 27.74507812 -25.44921875 28.12890625 C-26.51785156 28.60199219 -27.58648438 29.07507812 -28.6875 29.5625 C-29.74324219 30.03816406 -30.79898437 30.51382812 -31.88671875 31.00390625 C-35.16633893 32.05322011 -36.75895539 32.00418265 -40 31 C-40.66 29.02 -41.32 27.04 -42 25 C-35.06438945 20.16669442 -27.83914193 16.01127191 -20.4375 11.9375 C-13.51353327 8.11553619 -6.65908605 4.26988669 0 0 Z " fill="#484848" transform="translate(1261,1448)"/>
<path d="M0 0 C4.03371286 1.34457095 5.48156203 4.01832648 7.8125 7.375 C8.4768103 8.32185669 8.4768103 8.32185669 9.15454102 9.2878418 C15.92683717 19.08350653 23.70580014 30.53084125 22 43 C19.98321602 53.15659678 13.57636932 60.41401745 5.40625 66.4296875 C-3.52403149 72.257566 -11.30592508 75.00833907 -22 74 C-37.79456384 69.94119138 -47.92369711 56.60597623 -57 44 C-52.94509031 39.73041862 -48.5377967 36.14922779 -43.875 32.5625 C-42.69780396 31.65213989 -42.69780396 31.65213989 -41.49682617 30.72338867 C-34.27137526 25.16044357 -26.94911841 19.73283504 -19.58203125 14.359375 C-16.55490493 12.15061574 -13.55472869 9.91187099 -10.57421875 7.640625 C-9.88481201 7.12008545 -9.19540527 6.5995459 -8.48510742 6.06323242 C-7.19394873 5.08712217 -5.90858487 4.10328264 -4.63012695 3.1105957 C-2.90625 1.81640625 -2.90625 1.81640625 0 0 Z " fill="#E6E6E6" transform="translate(551,1296)"/>
<path d="M0 0 C2.5 2.25 2.5 2.25 5 5 C5 9 5 9 3.21484375 11 C1.6951438 12.334625 0.17430718 13.66795679 -1.34765625 15 C-2.16556641 15.99 -2.16556641 15.99 -3 17 C-2.61384865 20.22661941 -1.3649817 22.10177665 0.703125 24.546875 C1.54556763 25.55463989 1.54556763 25.55463989 2.4050293 26.58276367 C3.31828979 27.65554565 3.31828979 27.65554565 4.25 28.75 C5.5330597 30.28212713 6.81559994 31.81468941 8.09765625 33.34765625 C9.07629639 34.51192139 9.07629639 34.51192139 10.07470703 35.69970703 C12.97847915 39.16906297 15.83665119 42.67461595 18.6875 46.1875 C19.22262207 46.84564697 19.75774414 47.50379395 20.30908203 48.18188477 C23.7952251 52.48082331 27.22273781 56.82202364 30.625 61.1875 C34.58884733 66.27344746 38.68989353 71.21633028 42.88208008 76.11499023 C46.59673624 80.47515911 50.13877901 84.9527841 53.65307617 89.47509766 C58.01054878 95.06223437 62.51703328 100.5218508 67.05395508 105.96386719 C70.85191497 110.53749391 74.47686185 115.21147006 78 120 C81.55453139 118.95964935 84.52174162 117.73394056 87.625 115.75 C91 114 91 114 93.3125 114.4375 C95.42317874 116.39183216 96.00680489 118.33268562 97 121 C91.7894989 125.73224254 86.48718726 130.28617145 80.95703125 134.640625 C78.59805286 136.52282176 76.26902719 138.42968933 73.94921875 140.359375 C72.88006226 141.24363159 72.88006226 141.24363159 71.78930664 142.14575195 C70.36615522 143.32392548 68.9472297 144.50722569 67.53295898 145.69604492 C66.87497314 146.23849854 66.2169873 146.78095215 65.5390625 147.33984375 C64.95334473 147.82831787 64.36762695 148.31679199 63.76416016 148.82006836 C61.80096312 150.13312278 60.34480328 150.72170715 58 151 C55.6875 149.3125 55.6875 149.3125 54 147 C54.29551972 143.11719921 56.49641725 141.01974011 59.0625 138.25 C60.16271484 137.05117187 60.16271484 137.05117187 61.28515625 135.828125 C61.85105469 135.22484375 62.41695312 134.6215625 63 134 C61.68127483 131.1572672 60.20834765 128.85371083 58.19921875 126.453125 C57.64097412 125.78144287 57.08272949 125.10976074 56.50756836 124.41772461 C55.9069458 123.70237549 55.30632324 122.98702637 54.6875 122.25 C53.41097851 120.71524271 52.13494784 119.18007707 50.859375 117.64453125 C49.88967773 116.47978271 49.88967773 116.47978271 48.90039062 115.29150391 C46.05470426 111.86015598 43.2439666 108.40094568 40.4375 104.9375 C39.36589868 103.61587466 38.29428408 102.29426009 37.22265625 100.97265625 C36.6930127 100.3192627 36.16336914 99.66586914 35.61767578 98.99267578 C33.9760329 96.97047699 32.33038484 94.95160162 30.68359375 92.93359375 C25.52197568 86.60409595 20.39455769 80.25543388 15.375 73.8125 C11.41705675 68.73392565 7.32375097 63.79664968 3.13549805 58.90698242 C-0.77676301 54.31785475 -4.50438609 49.59761394 -8.20239258 44.83496094 C-10.61859567 41.72986414 -13.08204682 38.69795407 -15.6875 35.75 C-18 33 -18 33 -18 31 C-19.22976563 31.63228516 -19.22976563 31.63228516 -20.484375 32.27734375 C-21.56203125 32.82519531 -22.6396875 33.37304688 -23.75 33.9375 C-24.81734375 34.48277344 -25.8846875 35.02804687 -26.984375 35.58984375 C-29.38445885 36.71216275 -31.41856752 37.50501659 -34 38 C-35.32 36.35 -36.64 34.7 -38 33 C-36.45757964 28.71107628 -33.20569875 26.56469874 -29.6875 23.9375 C-28.41502507 22.96438243 -27.144231 21.98906357 -25.875 21.01171875 C-25.22917969 20.51462402 -24.58335938 20.0175293 -23.91796875 19.50537109 C-20.93884746 17.16712493 -18.06172783 14.7152163 -15.1875 12.25 C-10.23750317 8.01463649 -5.19428482 3.93262391 0 0 Z " fill="#484848" transform="translate(1352,1383)"/>
<path d="M0 0 C1.95934686 3.53746333 3.01766413 7.20164235 4.1875 11.0625 C6.44404171 18.13397197 9.60813979 23.98304866 14 30 C15.0828125 31.546875 15.0828125 31.546875 16.1875 33.125 C25.26408818 43.42573329 37.96063517 49.58757048 51 53 C50 55 50 55 47.69921875 55.82421875 C46.70535156 56.10910156 45.71148437 56.39398437 44.6875 56.6875 C27.20330731 62.32890025 14.86368925 73.90005703 6.25 89.875 C3.60813831 95.35054172 2.25241113 101.07395711 1 107 C0.67 107 0.34 107 0 107 C-0.20302734 105.94425781 -0.20302734 105.94425781 -0.41015625 104.8671875 C-4.25344906 87.23867076 -13.37849263 73.31111872 -28.53125 63.45703125 C-35.41938934 59.39172117 -42.33079228 56.27853273 -50 54 C-47.0452195 52.03014633 -44.87437413 51.29373248 -41.5 50.3125 C-25.89887279 45.19984144 -13.76593406 34.04236481 -5.90722656 19.82275391 C-2.80417752 13.58826409 -1.29731748 6.79844257 0 0 Z " fill="#F44905" transform="translate(391,1048)"/>
<path d="M0 0 C0.33 0 0.66 0 1 0 C1.3403125 1.8253125 1.3403125 1.8253125 1.6875 3.6875 C5.57202576 20.66234544 14.36807676 34.18233885 28.8828125 43.9375 C36.88779807 48.85104613 44.6824652 51.77400858 54 53 C53.505 53.99 53.505 53.99 53 55 C51.46835942 55.27242619 49.92245388 55.46523338 48.375 55.625 C33.14275825 58.21309814 20.04675732 68.82778041 11.0625 81 C6.20376159 88.46586634 2.80881254 96.28481229 1 105 C-0.84829449 102.22755827 -1.67361164 100.18674421 -2.6875 97.0625 C-8.61411281 80.54642458 -19.35839675 67.92267002 -35 60 C-40.2216998 57.68841289 -45.58221752 55.79420069 -51 54 C-51 53.67 -51 53.34 -51 53 C-50.03513672 52.79697266 -50.03513672 52.79697266 -49.05078125 52.58984375 C-33.0016838 48.76644964 -19.26143669 39.64740248 -10 26 C-5.04565574 17.7503875 -2.32899691 9.26118771 0 0 Z " fill="#F44904" transform="translate(1608,1048)"/>
<path d="M0 0 C3.32828499 1.07440714 6.55981907 2.15330561 9.69921875 3.69921875 C10.34568359 4.01753662 10.99214844 4.33585449 11.65820312 4.66381836 C38.443931 18.17591617 38.443931 18.17591617 43 30 C44.61098901 40.80645725 41.96940081 49.10796249 36 58 C31.24880396 63.43514941 25.37251842 67.93156806 17.96875 68.46875 C16.47952877 68.50320499 14.98956667 68.51257623 13.5 68.5 C12.70682373 68.49427979 11.91364746 68.48855957 11.09643555 68.48266602 C3.40148319 68.25290821 -3.00045903 66.1737537 -10 63 C-10.67853027 62.69513672 -11.35706055 62.39027344 -12.05615234 62.07617188 C-16.40300714 60.11518475 -20.71106363 58.08439905 -25 56 C-24.42733403 50.5797621 -22.52039439 46.3591602 -20.17578125 41.5234375 C-19.79189743 40.71693756 -19.40801361 39.91043762 -19.01249695 39.07949829 C-17.78619375 36.50790354 -16.54941359 33.9415052 -15.3125 31.375 C-14.49998382 29.67349554 -13.68812859 27.97167529 -12.87695312 26.26953125 C-8.67396667 17.46769679 -4.40931808 8.70061724 0 0 Z " fill="#E6E6E6" transform="translate(746,1469)"/>
<path d="M0 0 C16.0165337 5.91379706 33.21814131 16.43628263 41 32 C42.35219356 43.46797069 39.12331015 51.84509258 32.25 60.9375 C26.43134 67.0403619 20.03538916 69.30431786 11.6875 69.5625 C-3.92959673 68.90789116 -15.78780606 61.67197958 -29 54 C-27.67977581 50.54935291 -26.17793551 47.31759724 -24.41796875 44.0703125 C-23.90395508 43.12043457 -23.38994141 42.17055664 -22.86035156 41.19189453 C-22.30831055 40.17981934 -21.75626953 39.16774414 -21.1875 38.125 C-20.61870117 37.07812012 -20.04990234 36.03124023 -19.46386719 34.95263672 C-13.79422992 24.55415499 -7.96988886 14.24433239 -2.10058594 3.95751953 C-1.36865124 2.65568892 -0.66790588 1.33581177 0 0 Z " fill="#E6E6E6" transform="translate(1302,403)"/>
<path d="M0 0 C8.93834103 3.95371485 14.84039866 10.08315921 19.95703125 18.30078125 C22.62170987 28.78185048 21.00114748 37.58067273 15.89453125 46.98828125 C10.88857208 55.36188568 4.26470803 62.63896338 -2.10546875 69.98828125 C-7.15793767 68.46101403 -10.39356227 65.38247582 -14.23046875 61.92578125 C-15.57446236 60.73708342 -16.91952024 59.54958784 -18.265625 58.36328125 C-18.92191895 57.78320312 -19.57821289 57.203125 -20.25439453 56.60546875 C-22.67926723 54.48698329 -25.16395636 52.44982693 -27.66796875 50.42578125 C-32.70793344 46.34978571 -37.62153264 42.13782961 -42.51196289 37.88452148 C-45.60792574 35.1483909 -45.60792574 35.1483909 -49.10546875 32.98828125 C-48.22540604 28.44723142 -45.59596668 25.6851252 -42.60546875 22.30078125 C-42.06083984 21.67937256 -41.51621094 21.05796387 -40.95507812 20.41772461 C-39.34882524 18.59842143 -37.72932163 16.79187357 -36.10546875 14.98828125 C-35.32171875 14.1065625 -34.53796875 13.22484375 -33.73046875 12.31640625 C-24.38580477 2.35334539 -13.80394739 -4.49713506 0 0 Z " fill="#E6E6E6" transform="translate(510.10546875,569.01171875)"/>
<path d="M0 0 C1.22549197 3.67647591 0.66720931 4.44540082 -0.81640625 7.93359375 C-1.2446167 8.95864014 -1.67282715 9.98368652 -2.11401367 11.03979492 C-2.59201416 12.1610376 -3.07001465 13.28228027 -3.5625 14.4375 C-4.57319403 16.85823053 -5.58144607 19.27982807 -6.5859375 21.703125 C-6.85482285 22.34992722 -7.12370819 22.99672943 -7.40074158 23.66313171 C-10.9690757 32.28275664 -14.32064306 40.98772168 -17.6875 49.6875 C-18.31775944 51.31373244 -18.94804851 52.93995339 -19.57836914 54.56616211 C-21.05451196 58.37656828 -22.52805953 62.18796864 -24 66 C-28.79095398 61.95899778 -33.43638914 57.79534413 -38 53.5 C-42.07738335 49.66499128 -46.16176598 45.8420596 -50.30859375 42.08203125 C-51.00017578 41.45039062 -51.69175781 40.81875 -52.40429688 40.16796875 C-53.73964785 38.94934874 -55.08064845 37.73688529 -56.42773438 36.53125 C-58.00898263 35.08078168 -59.51255741 33.54651832 -61 32 C-61 31.01 -61 30.02 -61 29 C-59.89825439 28.47680176 -58.79650879 27.95360352 -57.66137695 27.41455078 C-28.82388994 13.72157005 -28.82388994 13.72157005 0 0 Z " fill="#E5E5E5" transform="translate(1449,521)"/>
</svg>
